<svg xmlns="http://www.w3.org/2000/svg" xmlns:xlink="http://www.w3.org/1999/xlink" viewBox="0 0 311.54 425.79"><defs><style>.cls-1{isolation:isolate;}.cls-2{fill:#6d6e71;}.cls-10,.cls-11,.cls-12,.cls-13,.cls-14,.cls-15,.cls-16,.cls-17,.cls-18,.cls-2,.cls-20,.cls-22,.cls-3,.cls-4,.cls-5,.cls-6,.cls-7,.cls-9{fill-rule:evenodd;}.cls-3{fill:url(#GradientFill_9);}.cls-4{fill:#d1d3d4;}.cls-21,.cls-5{fill:#939598;}.cls-20,.cls-6{opacity:0.2;}.cls-6{mix-blend-mode:multiply;}.cls-7{fill:#647883;}.cls-8{fill:#414042;}.cls-9{fill:url(#GradientFill_2);}.cls-10{fill:url(#GradientFill_3);}.cls-11{fill:url(#GradientFill_4);}.cls-12{fill:#849daa;}.cls-13{fill:url(#GradientFill_2-2);}.cls-14{fill:url(#GradientFill_5);}.cls-15{fill:url(#GradientFill_6);}.cls-16{fill:#fff;}.cls-17{fill:url(#GradientFill_7);}.cls-18{fill:url(#GradientFill_2-3);}.cls-19{fill:#cddc37;}.cls-22{fill:url(#linear-gradient);}</style><linearGradient id="GradientFill_9" x1="4.41" y1="437.7" x2="377.09" y2="-75.25" gradientUnits="userSpaceOnUse"><stop offset="0" stop-color="#bcbec0"/><stop offset="0.68" stop-color="#e6e7e8"/><stop offset="1" stop-color="#fff"/></linearGradient><linearGradient id="GradientFill_2" x1="50.36" y1="62.76" x2="97.74" y2="71.97" gradientUnits="userSpaceOnUse"><stop offset="0" stop-color="#e6e7e8"/><stop offset="1" stop-color="#fff"/></linearGradient><linearGradient id="GradientFill_3" x1="150.37" y1="95.05" x2="150.37" y2="167.96" gradientUnits="userSpaceOnUse"><stop offset="0" stop-color="#d1d3d4"/><stop offset="1" stop-color="#e6e7e8"/></linearGradient><linearGradient id="GradientFill_4" x1="58.5" y1="113.21" x2="138.8" y2="130.28" gradientUnits="userSpaceOnUse"><stop offset="0" stop-color="#d1d3d4"/><stop offset="1" stop-color="#fff"/></linearGradient><linearGradient id="GradientFill_2-2" x1="99.36" y1="266.56" x2="99.36" y2="172.33" xlink:href="#GradientFill_2"/><linearGradient id="GradientFill_5" x1="247.01" y1="403.13" x2="247.01" y2="298.83" gradientUnits="userSpaceOnUse"><stop offset="0" stop-color="#d1d3d4"/><stop offset="0.19" stop-color="#dbddde"/><stop offset="0.48" stop-color="#e4e5e6"/><stop offset="1" stop-color="#e6e7e8"/></linearGradient><linearGradient id="GradientFill_6" x1="191.75" y1="395.52" x2="191.75" y2="288.32" gradientUnits="userSpaceOnUse"><stop offset="0" stop-color="#bcbec0"/><stop offset="0.11" stop-color="#c5c7c9"/><stop offset="0.39" stop-color="#d8d9da"/><stop offset="0.68" stop-color="#e2e4e5"/><stop offset="1" stop-color="#e6e7e8"/></linearGradient><linearGradient id="GradientFill_7" x1="246.97" y1="199.75" x2="246.97" y2="304.34" gradientUnits="userSpaceOnUse"><stop offset="0" stop-color="#d1d3d4"/><stop offset="0.18" stop-color="#dcdedf"/><stop offset="0.45" stop-color="#e4e5e6"/><stop offset="1" stop-color="#e6e7e8"/></linearGradient><linearGradient id="GradientFill_2-3" x1="191.72" y1="301.28" x2="191.72" y2="183.17" xlink:href="#GradientFill_2"/><linearGradient id="linear-gradient" x1="-20.04" y1="233.96" x2="159.4" y2="442.48" gradientUnits="userSpaceOnUse"><stop offset="0" stop-color="#cddc37"/><stop offset="1" stop-color="#63b046"/></linearGradient></defs><g class="cls-1"><g id="Шар_2" data-name="Шар 2"><g id="Шар_1-2" data-name="Шар 1"><polygon class="cls-2" points="84.01 4.83 275.42 35.23 311.54 29.54 311.54 373.3 275.42 388 84.01 325.11 84.01 4.83"/><path class="cls-3" d="M84,4.83c3.73.72,7.52,1.29,11.31,1.91,0,3.61,0,7.25,0,10.83C91.54,17,87.75,16.35,84,15.72c0-3.63,0-7.23,0-10.89Zm0,23.8,11.31,1.93q0,5.42,0,10.83c-3.83-.66-7.6-1.32-11.33-2,0-3.52,0-7.12,0-10.71Zm0,23.62c3.74.75,7.51,1.42,11.33,2.14,0,3.61,0,7.22,0,10.79C91.54,64.45,87.77,63.76,84,63c0-3.6,0-7.19,0-10.79ZM84,76l11.31,2.26c0,3.61,0,7.22,0,10.79-3.81-.76-7.58-1.55-11.31-2.3,0-3.56,0-7.16,0-10.75Zm0,23.66c3.71.77,7.52,1.58,11.31,2.39v10.83l-11.31-2.47V99.61Zm0,23.62c3.73.87,7.5,1.71,11.33,2.59v10.79c-3.83-.85-7.6-1.74-11.33-2.59V123.23Zm0,23.66,11.31,2.72v10.83c-3.81-.93-7.58-1.85-11.31-2.8V146.89Zm0,23.62c3.73,1,7.5,1.91,11.31,2.89v10.82c-3.81-1-7.57-1.94-11.31-2.92V170.51Zm0,23.66c3.73,1,7.5,2,11.31,3.05,0,3.61,0,7.22,0,10.79-3.82-1-7.59-2-11.32-3.09,0-3.59,0-7.15,0-10.75Zm0,23.66L95.42,221v10.83c-3.8-1.09-7.59-2.17-11.3-3.25,0-3.56,0-7.16,0-10.75Zm0,23.62c3.71,1.13,7.5,2.24,11.31,3.38v10.79c-3.8-1.12-7.59-2.27-11.3-3.38,0-3.6,0-7.19,0-10.79Zm0,23.66,11.31,3.51v10.79q-5.73-1.79-11.3-3.55c0-3.56,0-7.15,0-10.75Zm0,23.66c3.72,1.19,7.5,2.39,11.31,3.63v10.79c-3.8-1.25-7.57-2.46-11.3-3.74,0-3.49,0-7.08,0-10.68ZM84,16.8V27.55l22.86,3.91c0-3.62,0-7.25,0-10.91Q95.31,18.7,84,16.8Zm0,23.66V51.21q11.27,2.13,22.86,4.21c0-3.63,0-7.29,0-10.91L84,40.46Zm0,23.62V74.87c7.51,1.51,15.14,3,22.86,4.54,0-3.59,0-7.29,0-10.91C99.18,67,91.54,65.57,84,64.08Zm0,23.66V98.53c7.53,1.61,15.14,3.2,22.86,4.83,0-3.62,0-7.25,0-11-7.71-1.53-15.35-3.08-22.85-4.67Zm0,23.7c0,3.59,0,7.15,0,10.71q11.25,2.63,22.85,5.16c0-3.62,0-7.24,0-10.9l-22.83-5Zm0,23.62c0,3.59,0,7.19,0,10.79l22.84,5.42V140.4c-7.71-1.81-15.35-3.56-22.85-5.34Zm0,23.62c0,3.6,0,7.19,0,10.79,7.5,1.94,15.13,3.86,22.83,5.79,0-3.66,0-7.29,0-10.95-7.71-1.86-15.35-3.75-22.85-5.63Zm0,23.66c0,3.6,0,7.23,0,10.75,7.5,2,15.13,4,22.85,6.08,0-3.62,0-7.21,0-10.9-7.69-2-15.33-4-22.83-5.93Zm0,23.66v10.75c7.5,2.13,15.13,4.25,22.83,6.38,0-3.59,0-7.25,0-10.87-7.71-2.1-15.34-4.19-22.84-6.26Zm0,23.66v10.75c7.5,2.23,15.13,4.44,22.83,6.71,0-3.66,0-7.29,0-10.91-7.69-2.2-15.32-4.38-22.82-6.55Zm0,23.62V264c7.5,2.33,15.13,4.68,22.83,7,0-3.58,0-7.21,0-10.87-7.69-2.29-15.32-4.58-22.82-6.88Zm0,23.66v10.75c7.5,2.43,15.14,4.84,22.82,7.3V284.11c-7.69-2.39-15.34-4.81-22.82-7.17Zm0,23.62c0,3.6,0,7.19,0,10.75,7.49,2.53,15.13,5.07,22.8,7.63,0-3.66,0-7.28,0-10.91-7.69-2.53-15.32-5-22.82-7.47ZM96.26,6.88c7.66,1.24,15.39,2.45,23.2,3.7,0,3.67,0,7.35,0,11q-11.73-1.92-23.21-3.85c0-3.58,0-7.23,0-10.84Zm0,23.83c7.68,1.34,15.41,2.68,23.24,4V45.66L96.26,41.55c0-3.61,0-7.22,0-10.84Zm0,23.84c7.66,1.39,15.39,2.84,23.24,4.29,0,3.63,0,7.31,0,11-7.8-1.48-15.54-3-23.21-4.45,0-3.61,0-7.22,0-10.83Zm0,23.83C104,80,111.68,81.45,119.51,83V93.92c-7.83-1.58-15.56-3.11-23.21-4.67,0-3.65,0-7.26,0-10.87Zm0,23.79c7.68,1.67,15.41,3.31,23.24,5,0,3.64,0,7.32,0,11-7.81-1.71-15.56-3.38-23.21-5.08,0-3.61,0-7.26,0-10.87Zm0,23.83,23.22,5.22v11c-7.81-1.77-15.54-3.58-23.21-5.38q0-5.36,0-10.83Zm0,23.8c7.68,1.86,15.41,3.7,23.24,5.59v11c-7.85-1.91-15.56-3.82-23.23-5.67,0-3.61,0-7.22,0-10.87Zm0,23.83c7.65,1.93,15.4,3.86,23.21,5.85v11c-7.81-2-15.56-4-23.21-6V173.63Zm0,23.83c7.67,2,15.4,4.06,23.2,6.15,0,3.64,0,7.32,0,11-7.83-2.12-15.54-4.22-23.21-6.34v-10.8Zm0,23.79c7.67,2.16,15.38,4.34,23.22,6.49,0,3.67,0,7.35,0,10.95q-11.72-3.31-23.21-6.6V221.25Zm0,23.83q11.51,3.34,23.22,6.79c0,3.67,0,7.31,0,11q-11.72-3.48-23.21-7c0-3.57,0-7.19,0-10.8Zm0,23.8c7.67,2.36,15.38,4.69,23.2,7.08,0,3.71,0,7.39,0,11-7.83-2.46-15.56-4.86-23.21-7.28V268.88Zm0,23.79q11.47,3.74,23.2,7.45c0,3.64,0,7.28,0,11q-11.72-3.82-23.21-7.57V292.67Zm11.44-272V31.62q11.61,2,23.51,4c0-3.65,0-7.34,0-11-7.92-1.29-15.77-2.57-23.5-3.89Zm0,24v11q11.65,2.12,23.53,4.32c0-3.65,0-7.35,0-11-7.92-1.43-15.77-2.81-23.54-4.23Zm0,24c0,3.63,0,7.33,0,10.91,7.74,1.58,15.58,3.13,23.51,4.7q0-5.53,0-11.11c-7.9-1.53-15.77-3-23.52-4.5Zm0,24v10.95l23.52,5c0-3.66,0-7.35,0-11Q119.46,95,107.82,92.62Zm0,24v10.91c7.75,1.78,15.6,3.53,23.52,5.3V121.76c-7.9-1.7-15.75-3.43-23.52-5.14Zm0,24c0,3.66,0,7.29,0,10.91,7.75,1.88,15.6,3.74,23.5,5.64,0-3.69,0-7.38,0-11.08q-11.9-2.75-23.54-5.47Zm0,24v11c7.77,1.91,15.6,3.9,23.52,5.9,0-3.69,0-7.35,0-11-7.9-1.93-15.76-3.86-23.51-5.81Zm0,24v10.92c7.77,2.11,15.62,4.16,23.54,6.27,0-3.69,0-7.38,0-11-7.92-2-15.76-4.06-23.53-6.15Zm0,24v10.88q11.63,3.31,23.52,6.57,0-5.53,0-11.07l-23.49-6.38Zm0,24c0,3.63,0,7.29,0,10.91l23.53,6.88v-11c-7.92-2.27-15.74-4.5-23.51-6.75Zm0,24V271.3c7.77,2.41,15.61,4.8,23.51,7.25V267.47q-11.85-3.56-23.51-7Zm0,23.92c0,3.66,0,7.29,0,10.95,7.75,2.47,15.61,5,23.53,7.44v-11c-7.92-2.48-15.76-4.9-23.51-7.39Zm0,23.93v10.94q11.65,3.93,23.51,7.82V316q-11.85-3.87-23.51-7.72ZM120.4,10.69c7.89,1.29,15.89,2.55,23.89,3.79V25.63c-8-1.3-16-2.59-23.87-3.91,0-3.64,0-7.32,0-11Zm0,24.17c7.86,1.4,15.85,2.76,23.87,4.1,0,3.74,0,7.45,0,11.12-8-1.41-16-2.84-23.87-4.22v-11Zm0,24.14c7.88,1.49,15.86,2.92,23.88,4.44,0,3.7,0,7.41,0,11.15-8-1.54-16-3.07-23.89-4.6V59Zm0,24.17c7.86,1.56,15.84,3.13,23.86,4.75V99c-8-1.65-16-3.28-23.86-4.91v-11Zm0,24.14c7.86,1.7,15.84,3.37,23.86,5.09,0,3.7,0,7.41,0,11.12l-23.9-5.22c0-3.64,0-7.31,0-11Zm0,24.14c7.88,1.8,15.86,3.57,23.88,5.39V148c-8-1.85-16-3.69-23.88-5.55v-11Zm0,24.13c7.85,1.9,15.85,3.78,23.87,5.7v11.16c-8-2-16-3.9-23.88-5.86,0-3.64,0-7.32,0-11Zm0,24.14c7.89,2,15.85,4,23.88,6,0,3.74,0,7.49,0,11.16-8-2.06-16-4.14-23.88-6.17,0-3.68,0-7.35,0-11Zm0,24.17c7.87,2.1,15.86,4.18,23.9,6.31,0,3.74,0,7.45,0,11.16-8-2.16-16-4.34-23.85-6.51,0-3.64,0-7.28,0-11Zm0,24.14c7.88,2.2,15.86,4.42,23.88,6.69V245.8c-8-2.26-16-4.55-23.87-6.81,0-3.64,0-7.32,0-11Zm0,24.1c7.88,2.34,15.84,4.66,23.87,7,0,3.71,0,7.41,0,11.08q-12.06-3.54-23.87-7.12c0-3.64,0-7.31,0-11Zm0,24.13c7.86,2.45,15.86,4.87,23.89,7.34,0,3.71,0,7.41,0,11.16-8.06-2.51-16-5-23.9-7.5v-11Zm0,24.18q11.82,3.75,23.87,7.6v11.12l-23.87-7.76v-11ZM132.27,24.75v11q12,2.1,24.2,4.15V28.74c-8.14-1.35-16.22-2.66-24.2-4Zm0,24.3q0,5.55,0,11.08l24.21,4.43c0-3.72,0-7.44,0-11.2-8.13-1.42-16.21-2.87-24.19-4.31Zm0,24.28V84.44c8,1.6,16.06,3.22,24.19,4.77V78c-8.13-1.56-16.19-3.07-24.19-4.68Zm0,24.37v11c8,1.71,16.06,3.4,24.19,5.13V102.63q-12.21-2.5-24.19-4.93Zm0,24.28c0,3.69,0,7.38,0,11.07q12,2.67,24.19,5.43c0-3.72,0-7.44,0-11.2-8.13-1.77-16.19-3.52-24.2-5.3Zm0,24.27c0,3.69,0,7.38,0,11.07q12,2.93,24.18,5.82V151.9c-8.13-1.87-16.19-3.77-24.19-5.65Zm0,24.34c0,3.69,0,7.35,0,11,8,2.05,16.07,4,24.2,6.08v-11.2q-12.19-3-24.21-5.92Zm0,24.31c0,3.65,0,7.34,0,11q12,3.18,24.18,6.4V201.16c-8.14-2.11-16.19-4.14-24.21-6.26Zm0,24.3v11q12,3.39,24.2,6.74v-11.2q-12.2-3.33-24.2-6.58Zm0,24.27v11q12,3.54,24.2,7.09V250.43q-12.19-3.48-24.2-7Zm0,24.27v11.08c8,2.46,16.07,4.9,24.2,7.39V275c-8.13-2.42-16.19-4.8-24.2-7.23Zm0,24.34v11l24.2,7.74c0-3.76,0-7.44,0-11.2l-24.19-7.55Zm0,24.24c0,3.69,0,7.38,0,11.07l24.21,8.06c0-3.73,0-7.45,0-11.21q-12.2-3.94-24.21-7.92ZM145.25,14.63q12.13,2,24.53,3.89c0,3.78,0,7.55,0,11.33-8.27-1.36-16.46-2.68-24.56-4.06V14.63Zm0,24.52,24.56,4.17V54.61q-12.41-2.14-24.54-4.37c0-3.67,0-7.38,0-11.09Zm0,24.45c8.11,1.52,16.29,3,24.54,4.56V79.45q-12.37-2.36-24.54-4.65V63.6Zm0,24.49Q157.41,90.48,169.8,93c0,3.74,0,7.55,0,11.32q-12.37-2.5-24.54-5V88.09Zm0,24.49q12.14,2.58,24.53,5.18v11.32c-8.25-1.81-16.44-3.58-24.53-5.38V112.58Zm0,24.48q12.12,2.76,24.52,5.53v11.29q-12.37-2.88-24.53-5.66c0-3.74,0-7.45,0-11.16Zm0,24.49c8.09,1.94,16.29,3.88,24.53,5.84v11.29q-12.36-3-24.53-6V161.55Zm0,24.45c8.09,2.08,16.28,4.13,24.53,6.23v11.25c-8.24-2.13-16.43-4.21-24.53-6.32V186Zm0,24.49q12.13,3.27,24.54,6.5c0,3.78,0,7.55,0,11.29q-12.41-3.36-24.53-6.67c0-3.71,0-7.41,0-11.12Zm0,24.48c8.08,2.25,16.27,4.55,24.53,6.82v11.33c-8.24-2.34-16.45-4.71-24.54-7q0-5.57,0-11.13Zm0,24.45c8.09,2.43,16.28,4.79,24.55,7.21v11.22c-8.27-2.45-16.47-4.89-24.54-7.27,0-3.7,0-7.45,0-11.16Zm0,24.45q12.13,3.79,24.52,7.56c0,3.77,0,7.51,0,11.29q-12.37-3.84-24.53-7.69V283.87Zm0,24.49q12.1,3.83,24.5,7.83v11.29c-8.24-2.69-16.43-5.34-24.5-8V308.36ZM157.44,28.9V40.1c8.22,1.43,16.5,2.87,24.87,4.27q0-5.68,0-11.37l-24.86-4.1Zm0,24.66c0,3.72,0,7.48,0,11.17,8.19,1.57,16.5,3.07,24.86,4.62V57.94q-12.54-2.22-24.88-4.38Zm0,24.66V89.39c8.21,1.63,16.49,3.24,24.86,4.9V83c-8.37-1.59-16.65-3.16-24.86-4.77Zm0,24.62c0,3.73,0,7.49,0,11.21q12.32,2.67,24.85,5.29V108c-8.36-1.73-16.65-3.42-24.86-5.13Zm0,24.66v11.17c8.21,1.89,16.5,3.74,24.86,5.61V132.91q-12.56-2.76-24.86-5.41Zm0,24.63v11.2q12.32,2.94,24.86,6c0-3.79,0-7.58,0-11.38l-24.85-5.79Zm0,24.66c0,3.72,0,7.48,0,11.17,8.2,2.13,16.49,4.2,24.85,6.32V182.87q-12.54-3.09-24.88-6.08Zm0,24.62v11.17c8.21,2.24,16.52,4.41,24.86,6.64,0-3.76,0-7.51,0-11.3-8.34-2.2-16.64-4.34-24.85-6.51Zm0,24.63v11.2l24.85,6.95V232.82c-8.34-2.26-16.65-4.51-24.85-6.78Zm0,24.66v11.2c8.2,2.41,16.51,4.83,24.85,7.27,0-3.79,0-7.58,0-11.37-8.33-2.41-16.66-4.76-24.84-7.1Zm0,24.58c0,3.73,0,7.52,0,11.28q12.3,3.72,24.84,7.59V282.74q-12.54-3.72-24.85-7.46Zm0,24.66c0,3.73,0,7.45,0,11.21q12.31,4,24.85,7.94V307.71q-12.54-3.87-24.87-7.77Zm0,24.63c0,3.72,0,7.48,0,11.2,8.2,2.76,16.49,5.5,24.84,8.3V332.66c-8.36-2.73-16.64-5.4-24.85-8.09Zm13.24-305.9c8.36,1.38,16.79,2.69,25.27,4V34.1c-8.48-1.39-16.9-2.73-25.27-4.1V18.67Zm0,24.81c8.36,1.48,16.78,2.9,25.26,4.36V59.3c-8.48-1.49-16.9-3-25.26-4.49V43.48Zm0,24.85C179.14,69.88,187.56,71.4,196,73v11.5q-12.72-2.4-25.27-4.81V68.33Zm0,24.8c8.36,1.7,16.78,3.36,25.26,5,0,3.85,0,7.66,0,11.46Q183.33,107,170.8,104.5c0-3.77,0-7.59,0-11.37Zm0,24.85q12.52,2.7,25.26,5.36c0,3.84,0,7.65,0,11.46q-12.75-2.73-25.26-5.53c0-3.74,0-7.51,0-11.29Zm0,24.84q12.51,2.81,25.26,5.68c0,3.81,0,7.62,0,11.47q-12.7-3-25.24-5.89V142.82Zm0,24.81q12.51,3.08,25.23,6.08c0,3.84,0,7.65,0,11.38-8.48-2.06-16.9-4.08-25.24-6.13V167.63Zm0,24.89q12.52,3.12,25.24,6.35v11.46c-8.47-2.21-16.89-4.37-25.23-6.6,0-3.7,0-7.44,0-11.21Zm0,24.77L196.06,224c0,3.81,0,7.66,0,11.43-8.48-2.29-16.9-4.6-25.24-6.85V217.29Zm0,24.8q12.51,3.49,25.23,7.08c0,3.81,0,7.62,0,11.46q-12.76-3.64-25.25-7.24v-11.3Zm0,24.85,25.25,7.36c0,3.77,0,7.61,0,11.42-8.5-2.54-16.91-5-25.25-7.56q0-5.61,0-11.22Zm0,24.77c8.34,2.62,16.75,5.18,25.25,7.75v11.43c-8.49-2.65-16.91-5.24-25.25-7.85V291.71Zm0,24.77c8.34,2.72,16.76,5.39,25.25,8.11v11.46q-12.73-4.12-25.24-8.24c0-3.78,0-7.56,0-11.33ZM183.3,33.16V44.54c8.48,1.45,17,2.91,25.61,4.34V37.37c-8.61-1.4-17.13-2.79-25.61-4.21Zm0,25V69.52c8.48,1.6,17,3.17,25.61,4.75,0-3.86,0-7.73,0-11.55-8.61-1.55-17.13-3-25.6-4.58Zm0,25V94.51q12.72,2.55,25.61,5.07V88Q196,85.6,183.31,83.17Zm0,25v11.38q12.69,2.72,25.62,5.4V113.42c-8.63-1.77-17.15-3.49-25.62-5.27Zm0,25v11.38Q196,147.4,209,150.28c0-3.83,0-7.69,0-11.55-8.64-1.88-17.16-3.7-25.62-5.59Zm0,25v11.42l25.6,6.12V164.08q-12.92-3-25.6-6Zm0,25c0,3.79,0,7.59,0,11.41Q196,197.73,209,201V189.42c-8.63-2.09-17.14-4.21-25.62-6.31Zm0,25.06v11.3c8.48,2.28,17,4.54,25.62,6.81V214.77c-8.63-2.2-17.15-4.43-25.62-6.6Zm0,25c0,3.79,0,7.58,0,11.38L209,251.59V240.08c-8.63-2.31-17.14-4.64-25.62-7Zm0,24.95v11.41q12.69,3.75,25.62,7.46c0-3.82,0-7.68,0-11.51q-12.9-3.69-25.59-7.36Zm0,25c0,3.83,0,7.63,0,11.38,8.45,2.64,17,5.22,25.59,7.86,0-3.86,0-7.69,0-11.55l-25.62-7.69Zm0,25v11.38q12.69,4,25.59,8.15V316.05q-12.91-4-25.59-8Zm0,24.95V344.4c8.45,2.82,17,5.66,25.61,8.52,0-3.83,0-7.69,0-11.56-8.63-2.78-17.14-5.55-25.59-8.37ZM197,22.83l26,4.11c0,3.88,0,7.76,0,11.6q-13.14-2.11-26-4.25V22.83Zm0,25.17q12.85,2.27,26,4.48v11.6c-8.73-1.56-17.4-3.07-26-4.61V48Zm0,25.18Q209.91,75.6,223,78c0,3.88,0,7.76,0,11.6-8.76-1.67-17.43-3.29-26-4.94V73.18Zm0,25.17c8.56,1.69,17.23,3.46,26,5.17v11.64q-13.14-2.67-26-5.34c0-3.77,0-7.58,0-11.47Zm0,25.21q12.85,2.76,26,5.5c0,3.88,0,7.76,0,11.6q-13.09-2.83-26-5.63V123.56Zm0,25.21q12.87,2.86,26,5.84v11.6c-8.74-2-17.41-4-26-6q0-5.72,0-11.43Zm0,25.18q12.85,3.13,26,6.23v11.57c-8.76-2.15-17.41-4.25-26-6.41V174Zm0,25.17q12.88,3.3,26,6.57c0,3.88,0,7.76,0,11.56-8.77-2.22-17.41-4.47-26-6.66,0-3.81,0-7.66,0-11.47Zm0,25.14c8.57,2.27,17.22,4.59,26,6.89v11.64l-26-7.06V224.26Zm0,25.18q12.85,3.62,26,7.26v11.6l-26-7.4V249.44Zm0,25.17,26,7.59v11.64c-8.76-2.59-17.43-5.21-26-7.8V274.61Zm0,25.18q12.85,3.94,26,7.95v11.61c-8.76-2.75-17.41-5.43-26-8.17V299.79Zm0,25.13q12.85,4.17,26,8.33v11.6c-8.74-2.85-17.4-5.69-26-8.46V324.92ZM209.94,37.57c0,3.83,0,7.69,0,11.52q13,2.27,26.33,4.5V41.87c-8.84-1.43-17.63-2.89-26.32-4.3Zm0,25.32V74.44c8.69,1.63,17.47,3.23,26.33,4.88V67.59c-8.86-1.58-17.64-3.1-26.33-4.7Zm0,25.32V99.76c8.69,1.82,17.47,3.53,26.33,5.29V93.28Q223,90.75,210,88.21Zm0,25.43v11.52l26.33,5.58V119L210,113.64ZM210,139v11.55l26.31,5.92V144.74Q223,141.86,210,139Zm0,25.39c0,3.83,0,7.73,0,11.56q13.06,3.15,26.35,6.28V170.43c-8.88-2-17.64-4.08-26.33-6.08Zm0,25.32v11.56c8.69,2.21,17.49,4.41,26.32,6.65,0-3.86,0-7.79,0-11.69-8.86-2.17-17.66-4.33-26.34-6.52ZM210,215v11.52c8.69,2.32,17.47,4.63,26.33,7V221.85Q223,218.42,210,215Zm0,25.36c0,3.82,0,7.69,0,11.51q13,3.66,26.32,7.36V247.53Q223,243.95,210,240.39Zm0,25.32v11.51l26.32,7.7c0-3.86,0-7.76,0-11.66Q223,269.5,210,265.71Zm0,25.35c0,3.83,0,7.69,0,11.56,8.69,2.65,17.47,5.37,26.32,8.06V299c-8.85-2.66-17.63-5.26-26.32-7.89Zm0,25.32V327.9c8.68,2.8,17.46,5.59,26.33,8.44,0-3.9,0-7.84,0-11.73-8.86-2.78-17.64-5.49-26.32-8.23Zm0,25.32v11.56c8.7,2.91,17.48,5.81,26.32,8.77,0-3.86,0-7.8,0-11.69Q223.06,346,210,341.7Zm14-314.6q13.23,2.13,26.76,4.22c0,4,0,7.87,0,11.82-9-1.47-18-2.94-26.76-4.4,0-3.88,0-7.76,0-11.64Zm0,25.55c8.8,1.49,17.74,3,26.74,4.56V69q-13.5-2.39-26.74-4.78V52.65Zm0,25.58c8.83,1.65,17.72,3.27,26.74,4.94V94.92Q237.3,92.3,224.09,89.8c0-3.84,0-7.72,0-11.57Zm0,25.55c8.8,1.72,17.74,3.5,26.75,5.28v11.82c-9-1.85-17.93-3.66-26.75-5.49V103.78Zm0,25.51q13.23,2.86,26.73,5.69v11.79l-26.73-5.87V129.29Zm0,25.55c8.8,2,17.74,4,26.71,6,0,3.92,0,7.87,0,11.79l-26.73-6.21V154.84Zm0,25.59q13.24,3.15,26.75,6.37v11.78q-13.52-3.3-26.74-6.58c0-3.84,0-7.69,0-11.57Zm0,25.51c8.8,2.29,17.73,4.51,26.72,6.78,0,3.92,0,7.83,0,11.71-9-2.31-17.91-4.6-26.71-6.88V205.94Zm0,25.52,26.72,7.11c0,3.92,0,7.87,0,11.79-9-2.43-17.91-4.83-26.73-7.3v-11.6Zm0,25.55c8.78,2.46,17.72,4.95,26.71,7.45v11.78c-9-2.53-17.92-5.09-26.73-7.62,0-3.85,0-7.73,0-11.61Zm0,25.47c8.81,2.62,17.73,5.22,26.72,7.87,0,3.91,0,7.91,0,11.78q-13.49-4-26.72-8V282.48Zm0,25.55c8.8,2.77,17.73,5.44,26.7,8.21V328q-13.49-4.2-26.7-8.38V308Zm0,25.55,26.7,8.54v11.79q-13.49-4.37-26.72-8.72c0-3.84,0-7.73,0-11.61Zm0,25.52q13.18,4.47,26.71,8.95c0,3.92,0,7.87,0,11.71-9-3-17.9-6.07-26.69-9V359.1ZM237.33,42V53.76c9,1.55,18,3.11,27.16,4.64,0-3.94,0-7.91,0-11.88q-13.7-2.24-27.14-4.49Zm0,25.77V79.5c9,1.7,18,3.33,27.16,5V72.6l-27.16-4.8Zm0,25.7v11.73q13.42,2.67,27.11,5.36c0-3.93,0-7.94,0-11.87-9.15-1.77-18.18-3.48-27.13-5.22Zm0,25.78V131c9,1.93,18,3.82,27.13,5.74V124.79c-9.13-1.84-18.16-3.7-27.13-5.51Zm0,25.69v11.7c9,2,18,4.05,27.13,6.12V150.91c-9.12-2-18.16-3.93-27.13-5.94Zm0,25.74v11.73q13.44,3.18,27.13,6.43V177q-13.71-3.17-27.13-6.32Zm0,25.74c0,3.93,0,7.83,0,11.69,9,2.31,18,4.55,27.13,6.84V203.11c-9.13-2.23-18.16-4.47-27.15-6.66Zm0,25.66v11.73c9,2.38,18,4.77,27.13,7.18,0-3.93,0-7.9,0-11.83-9.11-2.38-18.14-4.7-27.11-7.08Zm0,25.74c0,3.89,0,7.79,0,11.69,9,2.53,18,5,27.11,7.6V255.23c-9.13-2.45-18.18-4.93-27.13-7.38Zm0,25.73c0,3.9,0,7.76,0,11.62,9,2.68,18,5.3,27.13,8V281.31q-13.69-3.92-27.11-7.73Zm0,25.7c0,3.9,0,7.8,0,11.74,9,2.68,18,5.45,27.11,8.2v-11.8q-13.69-4.08-27.13-8.14Zm0,25.66v11.74l27.1,8.66c0-4,0-7.9,0-11.87-9.15-2.88-18.15-5.69-27.12-8.53Zm0,25.74c0,3.9,0,7.84,0,11.7q13.45,4.53,27.12,9V359.55q-13.68-4.49-27.1-8.87Zm14.5-319.2c7.75,1.25,15.56,2.47,23.52,3.73v12L251.9,43.31V31.48Zm0,25.9c7.75,1.39,15.56,2.71,23.52,4.08V73.38c-8-1.4-15.77-2.79-23.5-4.18,0-3.91,0-7.87,0-11.82Zm0,26q11.57,2.13,23.5,4.28V99.58q-11.94-2.25-23.5-4.48V83.39Zm0,25.9c7.75,1.52,15.58,3.09,23.52,4.63v12q-11.91-2.41-23.52-4.8V109.29Zm0,25.93c7.73,1.62,15.56,3.3,23.5,5v11.92L251.92,147V135.22Zm0,25.9c7.73,1.72,15.56,3.5,23.5,5.29v12c-7.94-1.82-15.75-3.66-23.5-5.46V161.12Zm0,25.93c7.73,1.87,15.54,3.71,23.5,5.61v12c-8-1.92-15.77-3.83-23.5-5.73,0-4,0-7.95,0-11.83Zm0,25.94c7.74,2,15.54,3.91,23.5,5.92v11.87q-11.91-3-23.5-6V213Zm0,25.86q11.6,3.1,23.49,6.23V257c-7.94-2.13-15.75-4.25-23.49-6.36V238.85Zm0,25.89q11.58,3.27,23.47,6.58v11.92q-11.91-3.36-23.49-6.67c0-3.95,0-7.87,0-11.83Zm0,25.9q11.6,3.42,23.49,6.89v12c-7.94-2.39-15.76-4.71-23.49-7V290.64Zm0,25.94c7.75,2.34,15.55,4.74,23.49,7.16v12c-7.92-2.45-15.74-4.92-23.47-7.33,0-3.92,0-7.88,0-11.79Zm0,25.93q11.6,3.67,23.47,7.48v11.92c-7.94-2.56-15.74-5.13-23.49-7.65,0-3.88,0-7.83,0-11.75Zm0,25.9c7.73,2.59,15.55,5.16,23.49,7.83V388q-11.91-3.87-23.49-7.88V368.41ZM265.56,46.69c0,4,0,7.94,0,11.92,3.24.55,6.51,1.1,9.84,1.62V48.32l-9.86-1.63Zm0,26.09v12c3.24.58,6.51,1.2,9.84,1.79v-12c-3.33-.58-6.6-1.15-9.84-1.75Zm0,26.12v11.92l9.84,2v-12c-3.33-.64-6.6-1.27-9.84-1.91Zm0,26.13V137l9.86,2V127.06c-3.33-.67-6.6-1.37-9.86-2Zm0,26.13V163c3.22.7,6.51,1.45,9.84,2.19V153.27c-3.33-.7-6.6-1.39-9.84-2.11Zm0,26.12V189.2c3.24.76,6.51,1.53,9.84,2.27V179.55c-3.33-.76-6.6-1.51-9.84-2.27Zm0,26.09v11.88l9.84,2.51v-12c-3.33-.83-6.6-1.61-9.84-2.43Zm0,26.09V241.3c3.24.9,6.51,1.76,9.84,2.63V232c-3.33-.82-6.6-1.67-9.84-2.51Zm0,26.09v11.88c3.23.92,6.5,1.81,9.83,2.71V258.22c-3.33-.88-6.6-1.8-9.83-2.67Zm0,26.05v11.87c3.23,1,6.5,1.91,9.83,2.88v-12c-3.33-.95-6.6-1.86-9.83-2.79Zm0,26.16v11.8q4.88,1.53,9.83,3V310.68c-3.35-1-6.58-1.95-9.83-2.92Zm0,26.05c0,3.93,0,7.91,0,11.88,3.23,1.05,6.48,2.09,9.81,3.11V336.88c-3.33-1-6.58-2.07-9.83-3.07Zm0,26.13v11.84c3.21,1.07,6.48,2.19,9.81,3.27v-12C272.09,362.06,268.84,361,265.61,359.94Z"/><path class="cls-4" d="M311.54,29.54c-2.67.49-5.34.91-8,1.33V42.63l8-1.3V29.54Zm0,25.7q-4,.72-8,1.39V68.32c2.67-.46,5.34-1,8-1.43V55.24Zm0,25.56q-4,.78-8,1.52c0,3.88,0,7.81,0,11.69l8-1.6V80.8Zm0,25.52c-2.67.55-5.33,1.14-8,1.69v11.62c2.67-.57,5.33-1.17,8-1.69V106.32Zm0,25.56c-2.67.62-5.33,1.23-8,1.82v11.69c2.67-.6,5.34-1.27,8-1.9V131.88Zm0,25.52c-2.66.65-5.33,1.34-8,2v11.69c2.66-.67,5.33-1.37,8-2.06V157.4Zm0,25.56c-2.66.71-5.32,1.43-8,2.12v11.69l8-2.2V183Zm0,25.49c-2.66.74-5.32,1.53-8,2.28v11.73c2.66-.8,5.32-1.57,8-2.36V208.45Zm0,25.59c-2.66.78-5.32,1.63-8,2.45v11.66l8-2.5V234Zm0,25.49c-2.65.88-5.31,1.73-8,2.61v11.7l8-2.66V259.53Zm0,25.55c-2.65.92-5.31,1.83-8,2.79,0,3.88,0,7.74,0,11.66q4-1.45,8-2.8V285.08Zm0,25.56c-2.65,1-5.31,1.93-8,2.88v11.69c2.67-1,5.32-2,8-2.95V310.64Zm0,25.53c-2.65,1-5.3,2-8,3.08v11.69c2.67-1.07,5.33-2.1,8-3.16V336.17Zm0,25.55c-2.64,1.08-5.3,2.13-8,3.18v11.69c2.67-1.1,5.33-2.19,8-3.29V361.72Zm0-319.24V54.13c-2.91.48-5.8,1-8.7,1.49l-8.78,1.47V45.31c2.94-.44,5.86-1,8.77-1.38s5.8-1,8.71-1.45Zm0,25.52V79.65c-2.9.56-5.79,1.15-8.7,1.67s-5.84,1.09-8.78,1.61V71.19c2.94-.51,5.87-1.06,8.78-1.57s5.8-1.08,8.7-1.62Zm0,25.56v11.65c-2.9.59-5.79,1.27-8.7,1.84s-5.84,1.2-8.78,1.79V97.06c2.94-.58,5.86-1.18,8.78-1.74s5.8-1.15,8.7-1.76Zm0,25.52V130.7c-2.9.69-5.79,1.37-8.7,2s-5.84,1.36-8.78,2V122.93c2.94-.65,5.87-1.37,8.78-2s5.8-1.26,8.7-1.87Zm0,25.56v11.61c-2.89.73-5.79,1.5-8.69,2.2s-5.85,1.44-8.79,2.14V148.81c2.94-.69,5.88-1.39,8.79-2.06s5.8-1.43,8.69-2.11Zm0,25.56v11.58q-4.34,1.2-8.69,2.33c-2.92.76-5.85,1.62-8.79,2.35V174.68c2.94-.72,5.87-1.49,8.79-2.23s5.8-1.5,8.69-2.25Zm0,25.52V207.3c-2.89.83-5.78,1.71-8.69,2.51s-5.84,1.65-8.78,2.49c0-3.9,0-7.84,0-11.78l8.79-2.37c2.91-.79,5.8-1.65,8.69-2.43Zm0,25.56v11.58c-2.88.9-5.77,1.83-8.68,2.68s-5.85,1.79-8.79,2.67V226.43c2.94-.83,5.88-1.71,8.79-2.55s5.8-1.75,8.68-2.6Zm0,25.49v11.64c-2.88.94-5.78,1.91-8.68,2.83s-5.85,1.89-8.79,2.85V252.31c2.94-.94,5.88-1.87,8.79-2.77s5.8-1.85,8.68-2.77Zm0,25.55V284c-2.88,1-5.77,2-8.67,3l-8.8,3V278.18l8.8-2.9q4.35-1.45,8.67-3Zm0,25.53V309.5c-2.88,1-5.76,2.14-8.67,3.17s-5.86,2.11-8.8,3.13V304.05c2.94-1,5.89-2.1,8.8-3.11s5.79-2.1,8.67-3.09Zm0,25.55V335c-2.88,1.11-5.76,2.27-8.67,3.35s-5.85,2.25-8.8,3.34V329.93c2.95-1.08,5.88-2.19,8.8-3.26s5.79-2.17,8.67-3.27Zm0,25.53v11.61c-2.87,1.18-5.76,2.37-8.66,3.52l-8.81,3.48V355.8c2.95-1.11,5.88-2.33,8.81-3.43s5.79-2.31,8.66-3.44ZM302.83,31c-2.91.46-5.83,1-8.77,1.37s-5.9.95-8.88,1.37c0,4,0,7.95,0,11.91,3-.48,5.94-1,8.89-1.43s5.86-.94,8.77-1.45V31Zm0,25.77c-2.92.49-5.84,1.07-8.78,1.55s-5.9,1-8.89,1.48V71.63c3-.51,5.94-1,8.89-1.56s5.87-1.09,8.78-1.63V56.74Zm0,25.73c-2.91.57-5.84,1.16-8.78,1.69s-5.91,1.13-8.89,1.66V97.68c3-.58,5.94-1.18,8.89-1.74s5.87-1.19,8.78-1.77V82.47Zm0,25.66c-2.91.64-5.84,1.31-8.78,1.9s-5.91,1.17-8.89,1.77v11.9c3-.62,5.94-1.32,8.89-2s5.87-1.33,8.78-2V108.13Zm0,25.74c-2.91.67-5.84,1.39-8.78,2s-5.91,1.34-8.89,2v11.87c3-.69,5.94-1.41,8.89-2.1s5.88-1.41,8.79-2.12c0-3.89,0-7.78,0-11.7Zm0,25.66c-2.91.74-5.86,1.48-8.79,2.18s-5.91,1.56-8.89,2.27c0,4,0,7.94,0,11.86,3-.76,5.95-1.57,8.9-2.31s5.88-1.51,8.79-2.27V159.53Zm0,25.73c-2.91.81-5.85,1.62-8.79,2.4l-8.9,2.33v11.83c3-.8,5.95-1.66,8.9-2.42s5.88-1.62,8.79-2.44v-11.7Zm0,25.66c-2.91.85-5.85,1.71-8.78,2.54s-5.93,1.77-8.91,2.58v11.87c3-.83,5.95-1.79,8.91-2.64s5.87-1.75,8.79-2.61c0-3.89,0-7.81,0-11.74Zm0,25.74c-2.92.91-5.85,1.86-8.79,2.74s-5.93,1.81-8.92,2.7v11.82c3-.9,6-1.84,8.92-2.74s5.87-1.86,8.79-2.79V236.66Zm0,25.73c-2.92.95-5.86,2-8.79,2.89s-5.93,1.91-8.92,2.87V280c3-1,6-2,8.92-3s5.87-2,8.8-3c0-3.85,0-7.74,0-11.66Zm0,25.7c-2.92,1-5.85,2.07-8.8,3s-5.94,2-8.92,3V306l8.92-3.13c2.95-1,5.88-2.12,8.8-3.15V288.09Zm0,25.7C300,314.87,297,316,294.07,317s-5.94,2.16-8.92,3.19v11.86c3-1.08,6-2.2,8.92-3.27s5.88-2.22,8.8-3.29V313.79Zm0,25.69c-2.92,1.13-5.86,2.28-8.8,3.38s-5.94,2.31-8.93,3.45V358.1c3-1.12,6-2.29,8.93-3.42s5.88-2.32,8.81-3.5c0-3.89,0-7.77,0-11.7Zm0,25.74c-2.93,1.16-5.86,2.39-8.81,3.55s-5.94,2.38-8.93,3.55v11.8c3-1.23,6-2.44,8.93-3.6s5.89-2.43,8.81-3.61V365.22ZM293.36,45.45V57.2c-3,.53-5.92,1.06-8.9,1.55s-6,1.06-9,1.55V48.35c3-.48,6.05-1,9-1.43s5.94-1,8.9-1.47Zm0,25.85V83.12c-3,.56-5.92,1.18-8.91,1.73s-6,1.09-9,1.66v-12c3-.51,6-1.06,9-1.57s5.95-1.13,8.91-1.68Zm0,25.92V109c-3,.63-5.93,1.23-8.91,1.83s-6,1.27-9,1.88V100.79c3-.54,6-1.16,9-1.75s5.95-1.2,8.91-1.82Zm0,25.88v11.79c-3,.66-5.94,1.39-8.91,2s-6,1.39-9,2V127l9-2c3-.63,5.95-1.31,8.91-2Zm0,25.88v11.79c-3,.74-5.93,1.53-8.91,2.26s-6,1.46-9,2.17V153.28c3-.7,6-1.43,9-2.12s5.95-1.45,8.91-2.18Zm0,25.89v11.78c-3,.81-5.94,1.63-8.92,2.41s-6,1.59-9,2.38V179.52c3-.77,6-1.58,9-2.33s5.95-1.56,8.91-2.32Zm0,25.84c0,3.94,0,7.88,0,11.79-3,.88-5.94,1.79-8.91,2.62s-6,1.7-9,2.56v-12c3-.8,6-1.62,9-2.44s6-1.71,8.92-2.54Zm0,25.92v11.78c-3,.92-5.93,1.88-8.91,2.77s-6,1.81-9,2.71V232c3-.88,6-1.79,9-2.66s5.95-1.78,8.91-2.68Zm0,25.92v11.78c-3,1-5.94,2-8.92,2.91s-6,1.92-9,2.89v-12c3-.91,6-1.87,9-2.8s6-1.88,8.92-2.82Zm0,25.85v11.78c-3,1-5.93,2-8.92,3.05s-6,2.06-9,3.07V284.45c3-1,6-2,9-3s6-2,8.92-3Zm0,25.91V316.1c-3,1.06-5.94,2.19-8.93,3.26s-6,2.18-9,3.25V310.66c3-1.06,6-2.13,9-3.17s6-2.13,8.93-3.18Zm0,25.89V342c-3,1.16-5.94,2.32-8.93,3.44s-6,2.32-9,3.46v-12c3-1.09,6-2.24,9-3.35s6-2.24,8.93-3.35Zm0,25.88v11.78c-3,1.21-6,2.45-8.93,3.62s-6,2.4-9,3.58V363.11l9-3.5c3-1.15,6-2.38,8.93-3.53ZM284.46,33.85l-9,1.38V47.14c3-.44,6-.94,9-1.46V33.85Zm0,26.06c-3,.53-6,1.06-9,1.56V73.39q4.53-.78,9-1.61c0-3.92,0-7.91,0-11.87Zm0,26c-3,.6-6,1.17-9,1.77V99.63c3-.59,6-1.21,9-1.82V85.94Zm0,26c-3,.64-6,1.28-9,1.88v12l9-2V112Zm0,26.13c-3,.72-6,1.39-9,2.07v12l9-2.18V138.09Zm0,26c-3,.78-6,1.53-9,2.24v12c3-.77,6-1.53,9-2.33V164.12Zm0,26.1c-3,.82-6,1.64-9,2.42v11.88c3-.8,6-1.64,9-2.47V190.22Zm0,26c-3,.89-6,1.75-9,2.61v11.91c3-.83,6-1.74,9-2.65V216.24Zm0,26.1q-4.51,1.4-9,2.75v12c3-.94,6-1.89,9-2.87,0-3.92,0-7.87,0-11.83Zm0,26c-3,1-6,2-9,2.93v12q4.5-1.49,9-3V268.36Zm0,26q-4.5,1.61-9,3.11v12c3-1.06,6-2.11,9-3.2,0-4,0-8,0-11.94Zm0,26.14c-3,1.1-6,2.21-9,3.29V335.7c3-1.1,6-2.22,9-3.34V320.49Zm0,26.06c-3,1.18-6,2.32-9,3.47v11.92c3-1.13,6-2.33,9-3.52V346.55Zm0,26.06c-3,1.25-6,2.47-9,3.65V388c3-1.13,6-2.36,9-3.63Z"/><polygon class="cls-5" points="275.42 35.23 311.54 29.54 108.25 0 84.01 4.83 275.42 35.23"/><path class="cls-6" d="M79.15,93.11l80,267.32,108.41,30.75c9.25-50.83-7.82-91.68,1.94-190.65,0-48.89-67.06-11.09-78.68-55.15C177.75,95.71,218,37.89,79,35.33Z"/><path class="cls-7" d="M71.42,64.71v-14c14.59-3,84.05,11.16,94.68,29,13.37,22.4-10.24,62.88,11.71,87.68,10.54,11.9,34.19,14,72.56,22.8,4.12,1,9.81,4.4,9.78,12.94l-.76,191.4-13.16-4.69C244.12,389.05,102.73,109.3,71.42,64.71Z"/><path class="cls-8" d="M259.46,394.59l-.09,0-13.16-4.69c-.66-.24-12.67-23.33-35.61-67.56-44-84.9-117.78-227-139.23-257.56h0V50.65h.06a27.2,27.2,0,0,1,5.26-.4c11.33,0,31.55,3.54,49.16,8.62,12.59,3.62,34.58,11.15,40.33,20.79,6,10,4.6,23.41,3.17,37.64-1.8,17.83-3.65,36.26,8.53,50,8.16,9.21,24.33,12.57,48.83,17.67,7.06,1.47,15.06,3.13,23.7,5.12,2.31.53,9.86,3,9.82,13Zm-188-329.9C93,95.29,166.67,237.36,210.71,322.25c20.21,38.94,34.8,67.07,35.54,67.49l13.08,4.66.75-191.3c0-9.87-7.43-12.35-9.73-12.87-8.63-2-16.63-3.65-23.69-5.12-24.52-5.1-40.72-8.47-48.9-17.71-12.22-13.8-10.36-32.27-8.57-50.13,1.43-14.2,2.78-27.62-3.15-37.55-5.72-9.6-27.67-17.11-40.25-20.74-17.6-5.07-37.8-8.61-49.12-8.61a27.43,27.43,0,0,0-5.18.39Z"/><polygon class="cls-9" points="55.88 67 69.05 64.28 157.3 80.38 143.45 83.15 55.88 67"/><polygon class="cls-10" points="143.45 83.15 157.3 80.38 157.3 176.14 143.45 179.39 143.45 83.15"/><polygon class="cls-11" points="55.88 67 143.45 83.15 143.45 179.39 55.88 159.2 55.88 67"/><path class="cls-7" d="M101.29,129.91,101,130l-.3.07-.3.05-.31,0h-.34l.31,0,.3-.05.3-.07.29-.08.28-.11.28-.12.27-.14.26-.16.26-.17.24-.19.24-.21.22-.23.22-.25.21-.27.19-.28.18-.29.17-.31.15-.32.13-.33.13-.35.1-.36.1-.37.07-.39.06-.39,0-.4,0-.42V123l0-.21,0-.21,0-.21,0-.21,0-.21,0-.2,0-.21,0-.2,0-.2,0-.2-.06-.2-.06-.2-.06-.19-.07-.19-.07-.19-.08-.19-.07-.19-.09-.18-.08-.18-.09-.18-.09-.18-.1-.18-.1-.17-.1-.17-.1-.16-.11-.17-.11-.16-.11-.16-.12-.15-.12-.15-.24-.28-.25-.28-.25-.25-.27-.25-.27-.22-.28-.22-.29-.19-.29-.18-.3-.17-.3-.15-.31-.13-.31-.11-.31-.09-.31-.07-.32,0-.32,0h.34l.32,0,.32,0,.31.07.31.09.31.11.31.13.3.15.3.17.29.18.29.19.28.22.27.22.27.25.25.25.25.28.24.28.12.15.11.15.12.16.11.16.11.17.1.16.1.17.1.17.1.18.09.18.09.18.08.18.08.18.08.19.08.19.07.19.07.19.06.19.06.2.06.2,0,.2,0,.2,0,.2,0,.21,0,.2,0,.21,0,.21,0,.21,0,.21,0,.21v.85l0,.42,0,.4-.06.39-.08.39-.09.37-.1.36-.13.35-.13.33-.16.32-.16.31-.18.29-.19.28-.21.27-.22.25-.23.23-.23.21-.24.19-.26.17-.26.16-.27.14-.28.12-.28.11Zm-8.08-8.62v-.44l.05-.2.07-.18.1-.15.13-.11.14-.08.16,0h-.34l-.16,0-.14.08-.12.11-.11.15-.07.18,0,.2v.22l0,.22,0,.22.08.2.11.18.12.16.15.13.16.09.17,0h.34l-.17,0-.16-.09-.15-.13-.12-.16-.11-.18-.08-.2-.05-.22Zm4.69,5.58.17,0h-.34l-.17,0-.16.07-.14.11-.11.15-.09.18,0,.21,0,.23,0,.24.06.23.09.22.12.21.14.17.16.15.18.12.19.07.19,0h.34l-.19,0-.2-.07-.17-.12-.17-.15-.14-.17-.11-.21-.09-.22-.06-.23,0-.24,0-.23.05-.21.09-.18.11-.15.14-.11.16-.07Zm4.85-4.64.18-.09.2,0h-.34l-.2,0-.18.09-.15.13-.13.16-.09.2-.06.22,0,.24,0,.26.07.24.1.23.13.21.16.18.18.15.2.1.22.07h.34l-.22-.07-.2-.1-.18-.15-.16-.18-.13-.21-.1-.23-.07-.24,0-.26,0-.24.06-.22.09-.2.13-.16.15-.13Zm-4.29-6.79h-.34l-.18.06-.16.09-.14.13-.11.16-.09.19,0,.22v.23l0,.24,0,.22.09.21.12.19.14.15.16.13.18.09.2,0h.33l-.19,0-.18-.09-.16-.13-.14-.15-.12-.19-.09-.21-.05-.22,0-.24,0-.23,0-.22.09-.19.11-.16.14-.13.16-.09.18-.06Zm-4.37,9.64v-.21l0-.21.06-.19.08-.17.12-.15.14-.1.15-.07.17,0h-.34l-.17,0-.15.07-.14.1-.12.15-.08.17-.06.19,0,.21v.21l0,.22.07.22.1.21.13.18.15.14.16.11.17.07.17,0h.34l-.17,0-.17-.07-.16-.11-.15-.14-.13-.18-.1-.21-.07-.22,0-.22ZM101,126.3l.18-.06.2,0h-.34l-.2,0-.18.06-.16.11-.14.15-.1.19-.06.2,0,.23v.23l0,.24.09.24.12.23.15.2.18.16.19.13.19.08.2,0h.34l-.2,0-.2-.08-.18-.13-.18-.16-.15-.2-.13-.23-.08-.24,0-.24v-.23l0-.23.06-.2.1-.19.14-.15.16-.11Zm.56-8.32.19-.08.19,0h-.33l-.2,0-.18.08-.17.13-.14.16-.1.2-.06.21,0,.23v.23l0,.24.09.23.12.21.16.19.17.14.19.11.2.06.2,0h.34l-.2,0-.2-.06-.19-.11-.17-.14-.16-.19-.12-.21-.09-.23-.05-.24v-.23l0-.23.06-.21.1-.2.14-.16.16-.13Zm-6.85-.42v-.22l0-.21,0-.2.09-.18.11-.15.15-.12.15-.08.17,0h-.34l-.17,0-.15.08-.14.12-.12.15-.09.18,0,.2,0,.21v.22l0,.21.08.21.1.2.13.17.15.13.16.09.17.06h.34l-.17-.06-.16-.09-.15-.13-.13-.17-.11-.2-.07-.21Z"/><path class="cls-12" d="M94.67,116.6a.78.78,0,0,1,1.25.21,1.36,1.36,0,0,1,0,1.61.8.8,0,0,1-1.26-.24,1.34,1.34,0,0,1,.06-1.58Zm6.41,1.51a1,1,0,0,1,1.47.26,1.36,1.36,0,0,1,0,1.74,1,1,0,0,1-1.48-.29,1.36,1.36,0,0,1,.06-1.71Zm-.56,8.3c.41-.36,1.06-.19,1.46.4a1.38,1.38,0,0,1-.06,1.74c-.43.36-1.08.15-1.46-.43a1.35,1.35,0,0,1,.06-1.71ZM94,124.15c.35-.34.9-.2,1.24.34a1.33,1.33,0,0,1-.06,1.59c-.36.35-.91.18-1.24-.35a1.35,1.35,0,0,1,.06-1.58Zm4.29-8.72a1.23,1.23,0,0,1,1,1.27c0,.66-.42,1.15-1,1.09a1.23,1.23,0,0,1-1-1.27c0-.64.4-1.13.93-1.09Zm4.7,6.68a1.47,1.47,0,0,1,1.1,1.44c0,.7-.48,1.18-1.07,1.07a1.47,1.47,0,0,1-1.08-1.44,1,1,0,0,1,1.05-1.07Zm-5.09,4.75a1.46,1.46,0,0,1,1,1.41c0,.66-.42,1.09-1,1a1.47,1.47,0,0,1-1-1.41c0-.65.41-1.08.93-1Zm-4.23-6.77a1.23,1.23,0,0,1,.87,1.25c0,.63-.38,1.06-.85,1a1.23,1.23,0,0,1-.85-1.25c0-.61.36-1,.83-1ZM98,114.72a4.72,4.72,0,0,0-4.1,1.81,7.45,7.45,0,0,0-1.55,4.84A10,10,0,0,0,94,126.76,7.34,7.34,0,0,0,98.17,130a4.82,4.82,0,0,0,4.61-1.17,7.21,7.21,0,0,0,2-5.38,10,10,0,0,0-2.14-6A6.78,6.78,0,0,0,98,114.72Z"/><path class="cls-13" d="M55.28,159.29q21.23,4.83,43.1,9.83l45.07,10.27V275.6q-22.92-6.23-45.15-12.35-21.85-6-43-11.86v-92.1Z"/><polygon class="cls-14" points="254.03 396.66 254 299.5 239.99 302.14 240.03 402.29 254.03 396.66"/><path class="cls-15" d="M240,302.14l-10.45-2.86-86.06-19.12c0,29.35.72,57.06.72,86.32L240,402.29Q240,352.22,240,302.14Z"/><polygon class="cls-16" points="239.95 201.37 254 198.67 157.3 176.14 143.45 179.39 239.95 201.37"/><polygon class="cls-17" points="239.99 302.14 254 299.5 254 198.67 239.95 201.37 239.99 302.14"/><polygon class="cls-18" points="239.95 201.37 143.45 179.39 143.45 275.6 239.99 302.14 239.95 201.37"/><path class="cls-7" d="M43,340.52l186.85,65.87c0-71.06,14.62-171.83-64.11-189.22C72.19,196.52,108.24,97.36,43,91.11Z"/><path class="cls-8" d="M229.88,406.49l-.09,0L42.9,340.57V91H43c13.79,1.32,23.92,6.75,31.88,17.09,7.12,9.23,11.67,21.31,16.5,34.11,11.27,29.88,24,63.75,74.38,74.87a80,80,0,0,1,22.47,8.46,67.22,67.22,0,0,1,16.72,13.48c8.81,9.83,15.17,22.44,19.42,38.57,3.5,13.28,5.56,29.06,6.28,48.25.64,16.92.2,34.24-.23,51-.26,10.34-.51,20.11-.51,29.52ZM43,340.47,229.75,406.3c0-9.38.25-19.12.51-29.44.83-32.58,1.77-69.52-6-99.2-9-33.94-28.09-53.7-58.51-60.42-50.41-11.14-63.2-45-74.48-75C81.47,116.43,73.05,94.09,43,91.18Z"/><path class="cls-19" d="M136.5,325.1h-.07l-12.35-4.19-33-11.33L58.88,297.84,36.47,289.6a.22.22,0,0,1-.12-.26.21.21,0,0,1,.26-.12L59,297.46l32.19,11.73,33,11.33,12.35,4.19a.2.2,0,0,1-.06.39Z"/><path class="cls-19" d="M136.5,319.9h-.07l-12.35-4.27-33-11.48L58.88,292.61l-22.41-8.09a.21.21,0,0,1-.12-.26.22.22,0,0,1,.26-.12L59,292.23,91.2,303.77l33,11.47,12.35,4.26a.21.21,0,0,1-.06.4Z"/><path class="cls-19" d="M136.5,314.78h-.07l-12.35-4.21-33-11.34L58.88,287.64l-22.41-8.12a.2.2,0,1,1,.14-.37L59,287.26,91.2,298.84l33,11.34,12.35,4.21a.21.21,0,0,1,.13.26A.21.21,0,0,1,136.5,314.78Z"/><path class="cls-19" d="M136.5,309.35h-.07l-12.35-4.21-33-11.32L58.89,282.55,36.48,274.7a.21.21,0,0,1-.13-.26.2.2,0,0,1,.26-.12L59,282.17,91.2,293.43l33,11.32L136.56,309a.2.2,0,0,1,.13.25A.2.2,0,0,1,136.5,309.35Z"/><path class="cls-19" d="M136.5,304.11h-.07L124.08,300l-33-11.19L58.89,277.42l-22.41-7.94a.2.2,0,1,1,.13-.37L59,277,91.2,288.38l33,11.19,12.35,4.15a.2.2,0,0,1,.13.25A.2.2,0,0,1,136.5,304.11Z"/><path class="cls-19" d="M136.5,298.88h-.06l-12.36-4.08-33-11L58.89,272.39l-22.41-8a.21.21,0,0,1-.13-.26.22.22,0,0,1,.26-.12L59,272,91.2,283.38l33,11,12.35,4.08a.2.2,0,0,1-.06.39Z"/><path class="cls-19" d="M136.5,293.6h-.07l-12.35-4.17-33-11.18L58.89,267.08l-22.41-7.83a.21.21,0,0,1-.13-.26.2.2,0,0,1,.26-.12L59,266.7,91.2,277.87l33,11.17,12.35,4.17a.21.21,0,0,1,.13.26A.21.21,0,0,1,136.5,293.6Z"/><path class="cls-19" d="M136.5,288.33h-.07l-12.35-4.08-33-11L58.89,262.09l-22.41-7.8a.21.21,0,0,1-.13-.26.2.2,0,0,1,.26-.12L59,261.71,91.2,272.86l33,11,12.35,4.08a.21.21,0,0,1,.13.26A.21.21,0,0,1,136.5,288.33Z"/><path class="cls-19" d="M136.5,283h-.06l-12.36-4.07-33-10.95L58.89,256.85,36.48,249.1a.2.2,0,1,1,.13-.38L59,256.47,91.2,267.55l33,11,12.35,4.07a.2.2,0,0,1-.06.39Z"/><path class="cls-19" d="M136.5,278h-.06l-12.36-4-33-10.81L58.89,252l-22.41-7.76a.21.21,0,0,1-.13-.26.2.2,0,0,1,.26-.12L59,251.65,91.2,262.73l33,10.81,12.35,4a.21.21,0,0,1,.13.26A.21.21,0,0,1,136.5,278Z"/><path class="cls-19" d="M136.5,272.59h-.06l-12.36-4-33-10.77-32.18-11-22.41-7.68a.21.21,0,0,1-.13-.26.2.2,0,0,1,.26-.12L59,246.48l32.18,11,33,10.77,12.35,4a.21.21,0,0,1,.13.25A.2.2,0,0,1,136.5,272.59Z"/><path class="cls-19" d="M136.5,267.35h-.06l-12.36-3.94-33-10.66L58.91,241.81l-22.43-7.65a.21.21,0,1,1,.13-.39L59,241.43,91.2,252.36l33,10.66L136.56,267a.2.2,0,0,1-.06.39Z"/><path class="cls-19" d="M136.5,262.29h-.06l-12.36-4-33-10.73L58.91,236.72l-22.43-7.57a.21.21,0,0,1-.13-.26.2.2,0,0,1,.26-.12L59,236.34,91.2,247.16l33,10.74,12.35,4a.2.2,0,0,1-.06.39Z"/><path class="cls-19" d="M136.5,257h-.06l-12.36-4-33-10.67L58.91,231.66l-22.43-7.5a.2.2,0,1,1,.13-.38L59,231.27,91.22,242l33,10.67,12.35,4a.2.2,0,0,1,.13.25A.21.21,0,0,1,136.5,257Z"/><path class="cls-19" d="M136.5,251.57h-.06l-12.36-4-33-10.64-32.18-10.6-22.43-7.43a.21.21,0,0,1-.13-.25.2.2,0,0,1,.26-.13L59,226l32.18,10.6,33,10.64,12.35,4a.22.22,0,0,1,.13.26A.21.21,0,0,1,136.5,251.57Z"/><path class="cls-19" d="M136.5,246.23h-.06l-12.36-3.84L91.1,232,58.91,221.46l-22.43-7.39a.22.22,0,0,1-.13-.26.2.2,0,0,1,.26-.12L59,221.07l32.18,10.55,33,10.38,12.36,3.84a.21.21,0,0,1,.13.25A.2.2,0,0,1,136.5,246.23Z"/><path class="cls-19" d="M136.5,241.14h-.06l-12.36-3.91-33-10.48L58.91,216.28,36.48,209a.22.22,0,0,1-.13-.26.2.2,0,0,1,.26-.12L59,215.9l32.18,10.46,33,10.48,12.36,3.91a.21.21,0,0,1,.13.25A.2.2,0,0,1,136.5,241.14Z"/><path class="cls-19" d="M136.5,235.82h-.06l-12.36-3.87-33-10.4L58.91,211.15l-22.43-7.26a.2.2,0,0,1-.13-.25.21.21,0,0,1,.26-.13L59,210.77l32.18,10.39,33,10.4,12.36,3.86a.22.22,0,0,1,.13.26A.21.21,0,0,1,136.5,235.82Z"/><path class="cls-19" d="M136.5,230.43h-.06l-12.36-3.77-33-10.18L58.91,206.08l-22.43-7.27a.21.21,0,0,1-.13-.25.2.2,0,0,1,.26-.13L59,205.7l32.18,10.39,33,10.18L136.56,230a.2.2,0,0,1,.13.25A.21.21,0,0,1,136.5,230.43Z"/><path class="cls-19" d="M136.5,225.38h-.06l-12.36-3.87-33-10.37L58.91,201l-22.43-7.11a.21.21,0,0,1-.13-.25.19.19,0,0,1,.25-.13L59,200.57l32.19,10.18,33,10.36L136.56,225a.2.2,0,0,1-.06.39Z"/><path class="cls-19" d="M136.5,220.18h-.06l-12.36-3.77-33-10.15L58.91,195.86l-22.43-7.29a.2.2,0,0,1-.13-.25.21.21,0,0,1,.26-.13L59,195.48l32.18,10.38,33,10.16,12.36,3.77a.2.2,0,0,1-.06.39Z"/><path class="cls-19" d="M136.5,214.73h-.06L124.09,211l-33-10L58.91,190.79l-22.43-7.22a.21.21,0,0,1-.13-.25.19.19,0,0,1,.25-.13L59,190.41l32.19,10.28,33,10,12.35,3.68a.2.2,0,0,1,.14.25A.21.21,0,0,1,136.5,214.73Z"/><path class="cls-19" d="M118.08,203.84h0L91.1,195.64,58.91,185.56l-22.43-7.07a.21.21,0,0,1-.13-.25.19.19,0,0,1,.25-.13L59,185.18l32.19,10.08,26.92,8.19a.2.2,0,0,1,.14.25A.2.2,0,0,1,118.08,203.84Z"/><path class="cls-19" d="M98.91,192.79h-.06l-7.75-2.29L36.48,173.58a.21.21,0,0,1-.13-.25.19.19,0,0,1,.25-.13l54.62,16.9L99,192.39a.21.21,0,0,1,.14.25A.19.19,0,0,1,98.91,192.79Z"/><path class="cls-19" d="M96,187H95.9l-4.8-1.46-32.17-10.1-22.45-7.09a.21.21,0,0,1-.13-.25.19.19,0,0,1,.25-.13L59.05,175l32.17,10.1,4.8,1.46a.2.2,0,0,1,.13.25A.2.2,0,0,1,96,187Z"/><path class="cls-19" d="M96,181.91H95.9l-4.8-1.45-32.17-10-22.45-7a.22.22,0,0,1-.13-.26.21.21,0,0,1,.25-.13l22.45,7,32.17,10,4.8,1.44a.21.21,0,0,1,.13.25A.19.19,0,0,1,96,181.91Z"/><path class="cls-19" d="M86.72,173.75h-.06l-27.73-8.5-22.45-6.9a.22.22,0,0,1-.13-.26.21.21,0,0,1,.25-.13l22.45,6.91,27.73,8.5a.2.2,0,0,1-.06.39Z"/><path class="cls-19" d="M86.72,168.61h-.06L36.49,153.39a.22.22,0,0,1-.14-.26.21.21,0,0,1,.25-.13l50.17,15.21a.2.2,0,0,1,0,.4Z"/><path class="cls-19" d="M86.72,163.48h-.06l-27.72-8.39-22.46-6.81a.21.21,0,0,1-.13-.25.2.2,0,0,1,.25-.14l22.45,6.82,27.72,8.39a.2.2,0,0,1,.14.25A.21.21,0,0,1,86.72,163.48Z"/><path class="cls-19" d="M78,155.73h-.06L36.48,143.05a.21.21,0,0,1-.13-.25.2.2,0,0,1,.25-.14l41.46,12.68a.2.2,0,0,1,.13.25A.21.21,0,0,1,78,155.73Z"/><path class="cls-19" d="M78,150.53h-.06L36.49,138a.2.2,0,0,1-.14-.25.2.2,0,0,1,.25-.14l41.46,12.48a.22.22,0,0,1,.13.26A.21.21,0,0,1,78,150.53Z"/><path class="cls-19" d="M78,145.56h-.06l-19-5.74-22.45-6.75a.22.22,0,0,1-.14-.26.21.21,0,0,1,.25-.13l22.45,6.76,19,5.73a.21.21,0,0,1-.06.4Z"/><path class="cls-19" d="M74.46,139.14h0l-37.92-11.3a.2.2,0,0,1,.11-.39l37.92,11.3a.2.2,0,0,1,.14.25A.21.21,0,0,1,74.46,139.14Z"/><path class="cls-19" d="M74.46,134.19h0L36.49,123a.2.2,0,1,1,.11-.38l37.92,11.17a.2.2,0,0,1,.14.25A.21.21,0,0,1,74.46,134.19Z"/><path class="cls-19" d="M74.46,129.13h0l-15.47-4.57-22.45-6.63a.2.2,0,1,1,.11-.38l22.45,6.62,15.47,4.58a.2.2,0,0,1,.14.25A.2.2,0,0,1,74.46,129.13Z"/><path class="cls-19" d="M70.24,122.77h-.06l-11.24-3.31-22.45-6.58a.2.2,0,0,1,.11-.39l22.45,6.58,11.25,3.31a.19.19,0,0,1,.13.25A.18.18,0,0,1,70.24,122.77Z"/><path class="cls-19" d="M133.2,329.09h0a.2.2,0,0,1-.2-.21l.2-70.89L133,210.93a.2.2,0,0,1,.2-.2h0a.2.2,0,0,1,.2.2L133.6,258l-.2,70.9A.2.2,0,0,1,133.2,329.09Z"/><path class="cls-19" d="M128.84,327.53h0a.2.2,0,0,1-.2-.2l.08-35.36.1-35.42-.1-47a.19.19,0,0,1,.2-.2h0a.19.19,0,0,1,.2.2l.11,47L129.12,292,129,327.33A.2.2,0,0,1,128.84,327.53Z"/><path class="cls-19" d="M124.18,325.87h0a.2.2,0,0,1-.2-.2l.28-35.23.31-35.29-.17-35.44-.07-11.53a.2.2,0,0,1,.2-.2h0a.2.2,0,0,1,.2.2l.08,11.53.16,35.44-.3,35.3-.29,35.22A.2.2,0,0,1,124.18,325.87Z"/><path class="cls-19" d="M119.88,324.34h0a.2.2,0,0,1-.2-.2l.28-70.5-.18-35.39-.07-11.52a.2.2,0,0,1,.2-.21h0a.2.2,0,0,1,.2.2l.08,11.53.18,35.39-.29,70.5A.19.19,0,0,1,119.88,324.34Z"/><path class="cls-19" d="M115.61,322.82h0a.2.2,0,0,1-.2-.2l.12-70.44-.2-35.33-.14-16.49a.2.2,0,0,1,.2-.2h0a.21.21,0,0,1,.21.2l.14,16.49.2,35.33-.12,70.44A.2.2,0,0,1,115.61,322.82Z"/><path class="cls-19" d="M111.11,321.22h0a.2.2,0,0,1-.2-.21l.37-70.23L111,215.49l-.16-15.87a.2.2,0,0,1,.2-.2h0a.2.2,0,0,1,.2.2l.17,15.87.26,35.29L111.31,321A.2.2,0,0,1,111.11,321.22Z"/><path class="cls-19" d="M106.54,319.6h0a.2.2,0,0,1-.2-.2l.29-35,.26-35.07-.25-35.22-.14-18.47a.22.22,0,0,1,.2-.21h0a.2.2,0,0,1,.2.2l.14,18.48.24,35.22L107,284.41l-.28,35A.21.21,0,0,1,106.54,319.6Z"/><path class="cls-19" d="M102.17,318h0a.2.2,0,0,1-.2-.2l.23-34.95.24-35-.12-35.13-.09-19.12a.2.2,0,0,1,.2-.2.2.2,0,0,1,.21.2l.08,19.12.12,35.13-.24,35-.22,34.95A.2.2,0,0,1,102.17,318Z"/><path class="cls-19" d="M97.91,316.52h0a.19.19,0,0,1-.2-.2l.1-34.93.14-35-.16-55.95a.2.2,0,0,1,.2-.2h0a.2.2,0,0,1,.2.2l.16,55.95-.14,35-.1,34.92A.2.2,0,0,1,97.91,316.52Z"/><path class="cls-19" d="M93.53,315h0a.19.19,0,0,1-.2-.2l.56-69.69L93.51,179a.2.2,0,0,1,.2-.2.21.21,0,0,1,.2.2l.38,66.1-.56,69.69A.2.2,0,0,1,93.53,315Z"/><path class="cls-19" d="M89.43,313.5h0a.2.2,0,0,1-.2-.2l.08-69.73-.06-34.93,0-30.65a.2.2,0,0,1,.2-.2h0a.2.2,0,0,1,.2.2l0,30.65.06,34.93-.08,69.73A.2.2,0,0,1,89.43,313.5Z"/><path class="cls-19" d="M85.05,311.94h0a.2.2,0,0,1-.2-.2L85,277l.18-34.79L85,207.3l-.22-34.9,0-12.08a.2.2,0,0,1,.2-.2h0a.2.2,0,0,1,.2.2l0,12.08.22,34.89.2,34.92L85.41,277l-.16,34.73A.2.2,0,0,1,85.05,311.94Z"/><path class="cls-19" d="M80.55,310.34h0a.2.2,0,0,1-.2-.2l.18-34.66.2-34.73-.18-34.85-.16-34.82,0-12.17a.2.2,0,0,1,.2-.2h0a.19.19,0,0,1,.2.2l0,12.17L81,205.9l.18,34.85-.2,34.73-.18,34.66A.2.2,0,0,1,80.55,310.34Z"/><path class="cls-19" d="M76.45,308.88h0a.2.2,0,0,1-.2-.2l.14-34.62.16-34.68-.22-34.81-.2-34.77.2-28.3a.2.2,0,0,1,.21-.2h0a.2.2,0,0,1,.2.2l-.21,28.3.2,34.77L77,239.38l-.16,34.68-.14,34.62A.2.2,0,0,1,76.45,308.88Z"/><path class="cls-19" d="M72.15,307.36h0a.2.2,0,0,1-.2-.2l.18-34.55L72.35,238,72,168.56l0-34.64,0-8.44a.2.2,0,0,1,.2-.2h0a.2.2,0,0,1,.2.2l0,8.44,0,34.64L72.75,238l-.22,34.61-.18,34.55A.2.2,0,0,1,72.15,307.36Z"/><path class="cls-19" d="M67.93,305.86h0a.2.2,0,0,1-.2-.2l.1-34.53.08-34.59-.12-34.65-.1-34.63.12-34.57.06-12.64a.2.2,0,0,1,.2-.2c.11,0,.2.09.2.2l-.06,12.65-.12,34.56.1,34.63.13,34.65-.09,34.59-.1,34.53A.2.2,0,0,1,67.93,305.86Z"/><path class="cls-19" d="M63.61,304.32h0a.2.2,0,0,1-.2-.21l.48-68.89-.22-34.63-.2-34.6.24-34.48.11-12.59a.2.2,0,0,1,.2-.2h0a.2.2,0,0,1,.2.2l-.1,12.6L63.88,166l.2,34.6.22,34.63-.49,68.9A.2.2,0,0,1,63.61,304.32Z"/><path class="cls-19" d="M59.31,302.78h0a.2.2,0,0,1-.2-.2l.45-68.79-.2-34.56-.19-34.54.23-34.42.08-12.56a.2.2,0,1,1,.4,0l-.08,12.57-.22,34.41.18,34.53.2,34.57-.44,68.79A.21.21,0,0,1,59.31,302.78Z"/><path class="cls-19" d="M55.36,301.37h0a.2.2,0,0,1-.2-.2l.1-34.35.12-34.4-.22-34.51L55,163.42l.24-46.91a.2.2,0,0,1,.2-.2h0a.19.19,0,0,1,.2.2l-.24,46.91.2,34.48.22,34.52-.12,34.41-.1,34.34A.2.2,0,0,1,55.36,301.37Z"/><path class="cls-19" d="M51.1,299.86h0a.2.2,0,0,1-.2-.2L51.14,231,51,196.61l-.12-34.4.14-34.33,0-12.51a.2.2,0,0,1,.2-.21h0a.21.21,0,0,1,.2.21l0,12.51-.14,34.33.12,34.4.1,34.42-.24,68.63A.2.2,0,0,1,51.1,299.86Z"/><path class="cls-19" d="M46.86,298.35h0a.2.2,0,0,1-.2-.2l.4-68.46-.24-34.41-.22-34.37.1-34.28,0-12.48a.2.2,0,0,1,.2-.2c.1,0,.2.09.2.2l0,12.48L47,160.91l.22,34.37.24,34.41-.4,68.46A.2.2,0,0,1,46.86,298.35Z"/><path class="cls-19" d="M42.72,296.88h0a.2.2,0,0,1-.2-.2l.16-68.43L42.62,194l0-34.27L42.75,113a.19.19,0,0,1,.2-.2h0a.2.2,0,0,1,.2.2L43,159.69,43,194l.06,34.29-.16,68.43A.2.2,0,0,1,42.72,296.88Z"/><path class="cls-19" d="M134.4,327.17h-.06L122,323,89,311.64,56.79,299.91l-22.41-8.24a.2.2,0,0,1-.12-.26.2.2,0,0,1,.26-.12l22.41,8.24,32.18,11.73,33,11.33,12.35,4.19a.19.19,0,0,1,.13.25A.2.2,0,0,1,134.4,327.17Z"/><path class="cls-19" d="M134.4,322h-.06L122,317.68,89,306.21,56.79,294.67l-22.41-8.08a.2.2,0,1,1,.14-.38l22.4,8.09,32.19,11.53,33,11.47,12.36,4.27a.2.2,0,0,1-.07.39Z"/><path class="cls-19" d="M134.4,316.85h-.06L122,312.63,89,301.29,56.79,289.71l-22.41-8.12a.19.19,0,0,1-.12-.25.21.21,0,0,1,.26-.13l22.4,8.12,32.19,11.58,33,11.34,12.35,4.21a.19.19,0,0,1,.13.25A.2.2,0,0,1,134.4,316.85Z"/><path class="cls-19" d="M134.4,311.42h-.06L122,307.2,89,295.88,56.79,284.62l-22.41-7.85a.2.2,0,0,1-.12-.26.19.19,0,0,1,.25-.12l22.41,7.85L89.11,295.5l33,11.32L134.46,311a.19.19,0,0,1,.13.25A.2.2,0,0,1,134.4,311.42Z"/><path class="cls-19" d="M134.4,306.18h-.06L122,302,89,290.83,56.79,279.49l-22.41-7.94a.2.2,0,0,1,.13-.38l22.41,7.94,32.19,11.34,33,11.19,12.35,4.15a.19.19,0,0,1,.13.25A.21.21,0,0,1,134.4,306.18Z"/><path class="cls-19" d="M134.4,301h-.06L122,296.86l-33-11L56.79,274.46l-22.41-8a.2.2,0,0,1-.12-.26.19.19,0,0,1,.25-.12l22.41,8,32.19,11.36,33,11,12.35,4.08a.19.19,0,0,1,.13.25A.2.2,0,0,1,134.4,301Z"/><path class="cls-19" d="M134.4,295.67h-.06L122,291.49,89,280.31,56.79,269.14l-22.41-7.82a.2.2,0,0,1-.12-.26.19.19,0,0,1,.25-.12l22.41,7.82,32.19,11.17,33,11.18,12.35,4.17a.2.2,0,0,1,.13.26A.21.21,0,0,1,134.4,295.67Z"/><path class="cls-19" d="M134.4,290.4h-.06L122,286.31l-33-11L56.79,264.16l-22.41-7.8a.2.2,0,0,1-.12-.26.19.19,0,0,1,.25-.12l22.41,7.8,32.19,11.14,33,11L134.46,290a.19.19,0,0,1,.13.25A.2.2,0,0,1,134.4,290.4Z"/><path class="cls-19" d="M134.4,285h-.06L122,281,89,270,56.79,258.92l-22.41-7.75a.2.2,0,0,1-.12-.26.19.19,0,0,1,.25-.12l22.41,7.75L89.1,269.62l33,11,12.35,4.07a.19.19,0,0,1,.13.25A.2.2,0,0,1,134.4,285Z"/><path class="cls-19" d="M134.4,280h-.06L122,276,89,265.18,56.79,254.1l-22.41-7.76a.2.2,0,0,1-.12-.26.19.19,0,0,1,.25-.12l22.41,7.76L89.1,264.8l33,10.81,12.35,4a.2.2,0,0,1,.13.25A.19.19,0,0,1,134.4,280Z"/><path class="cls-19" d="M134.4,274.66h-.06l-12.36-4L89,259.9l-32.19-11-22.41-7.68a.2.2,0,0,1-.12-.26.19.19,0,0,1,.25-.12l22.41,7.68,32.18,11,33,10.76,12.35,4a.19.19,0,0,1,.13.25A.19.19,0,0,1,134.4,274.66Z"/><path class="cls-19" d="M134.4,269.42h-.06L122,265.47,89,254.81,56.81,243.88l-22.43-7.66a.19.19,0,0,1-.12-.25.2.2,0,0,1,.25-.13l22.43,7.66L89.1,254.43l33,10.65L134.46,269a.19.19,0,0,1,.13.25A.2.2,0,0,1,134.4,269.42Z"/><path class="cls-19" d="M134.4,264.36h-.06l-12.36-4L89,249.61,56.81,238.79l-22.43-7.57a.2.2,0,0,1-.12-.26.21.21,0,0,1,.25-.13l22.43,7.58L89.1,249.23l33,10.74,12.35,4a.2.2,0,0,1,.13.25A.19.19,0,0,1,134.4,264.36Z"/><path class="cls-19" d="M134.4,259.09h-.06l-12.36-4L89,244.44,56.81,233.72l-22.43-7.49a.2.2,0,0,1-.12-.26.19.19,0,0,1,.25-.12l22.43,7.49,32.18,10.72,33,10.66,12.35,4a.21.21,0,0,1,.13.26A.2.2,0,0,1,134.4,259.09Z"/><path class="cls-19" d="M134.4,253.63h-.06l-12.36-4L89,239l-32.19-10.6L34.38,221a.2.2,0,0,1-.12-.26.19.19,0,0,1,.25-.12L56.94,228l32.18,10.61,33,10.64,12.35,4a.2.2,0,0,1,.13.25A.19.19,0,0,1,134.4,253.63Z"/><path class="cls-19" d="M134.4,248.3h-.06L122,244.45,89,234.07,56.81,223.52l-22.43-7.38a.21.21,0,0,1,.13-.39l22.43,7.39,32.18,10.54,33,10.39,12.35,3.84a.19.19,0,0,1,.13.25A.18.18,0,0,1,134.4,248.3Z"/><path class="cls-19" d="M134.4,243.21h-.06L122,239.29,89,228.81,56.81,218.35l-22.43-7.3a.21.21,0,0,1,.13-.39L56.94,218l32.18,10.45,33,10.49,12.35,3.91a.19.19,0,0,1,.13.25A.2.2,0,0,1,134.4,243.21Z"/><path class="cls-19" d="M134.4,237.88h-.06L122,234l-33-10.4L56.81,213.22,34.38,206a.19.19,0,0,1-.12-.25.19.19,0,0,1,.25-.13l22.43,7.26,32.18,10.39,33,10.39,12.35,3.87a.2.2,0,0,1,.13.25A.18.18,0,0,1,134.4,237.88Z"/><path class="cls-19" d="M134.4,232.5h-.06L122,228.72,89,218.54,56.81,208.15l-22.43-7.27a.19.19,0,0,1-.12-.25.19.19,0,0,1,.25-.13l22.43,7.27,32.18,10.39,33,10.18,12.35,3.76a.21.21,0,0,1,.13.26A.2.2,0,0,1,134.4,232.5Z"/><path class="cls-19" d="M134.4,227.45h-.06L122,223.56,89,213.2,56.82,203l-22.43-7.11a.2.2,0,0,1-.14-.25.2.2,0,0,1,.26-.13l22.43,7.11,32.18,10.17,33,10.37,12.35,3.88a.2.2,0,0,1-.06.39Z"/><path class="cls-19" d="M134.4,222.25h-.06L122,218.47,89,208.31,56.81,197.93l-22.43-7.29a.19.19,0,0,1-.12-.25.19.19,0,0,1,.25-.13l22.43,7.29,32.18,10.38,33,10.16,12.35,3.77a.2.2,0,0,1-.06.39Z"/><path class="cls-19" d="M134.4,216.79h-.06L122,213.1l-33-10L56.82,192.86l-22.43-7.22a.2.2,0,0,1,.12-.39l22.43,7.23,32.18,10.27,33,10,12.36,3.69a.2.2,0,0,1,.13.25A.18.18,0,0,1,134.4,216.79Z"/><path class="cls-19" d="M116,205.91h-.06L89,197.71,56.82,187.63l-22.43-7.07a.2.2,0,0,1-.14-.25.22.22,0,0,1,.26-.14l22.43,7.07,32.18,10.09,26.93,8.19a.2.2,0,0,1,.13.25A.21.21,0,0,1,116,205.91Z"/><path class="cls-19" d="M107.54,197.86h-.05L89,192.56,34.39,175.65a.21.21,0,0,1-.14-.25.22.22,0,0,1,.26-.14l54.61,16.91,18.48,5.3a.2.2,0,0,1,.14.25A.22.22,0,0,1,107.54,197.86Z"/><path class="cls-19" d="M93.86,189H93.8L89,187.55l-32.16-10.1-22.45-7.09a.2.2,0,0,1-.14-.25.2.2,0,0,1,.26-.13L57,177.07l32.16,10.09,4.8,1.47a.2.2,0,0,1,.14.25A.22.22,0,0,1,93.86,189Z"/><path class="cls-19" d="M93.86,184H93.8L89,182.52l-32.16-10-22.45-7a.22.22,0,0,1-.14-.26.22.22,0,0,1,.26-.13l22.45,7,32.16,10,4.8,1.45a.2.2,0,0,1,.14.25A.21.21,0,0,1,93.86,184Z"/><path class="cls-19" d="M84.62,175.82h-.06l-27.72-8.5L34.39,160.4a.2.2,0,0,1-.14-.25.22.22,0,0,1,.26-.13L57,166.93l27.72,8.5a.2.2,0,0,1,.13.25A.21.21,0,0,1,84.62,175.82Z"/><path class="cls-19" d="M84.62,170.67h-.06L34.39,155.45a.2.2,0,0,1-.14-.25.21.21,0,0,1,.25-.13l50.18,15.21a.2.2,0,0,1,.13.25A.18.18,0,0,1,84.62,170.67Z"/><path class="cls-19" d="M84.62,165.55h-.06l-27.72-8.39-22.45-6.81a.22.22,0,0,1-.14-.26.21.21,0,0,1,.25-.13L57,156.77l27.72,8.38a.22.22,0,0,1,.13.26A.2.2,0,0,1,84.62,165.55Z"/><path class="cls-19" d="M75.9,157.8h-.06L34.39,145.12a.21.21,0,0,1-.14-.25.22.22,0,0,1,.26-.14L76,157.4a.2.2,0,0,1,.13.26A.2.2,0,0,1,75.9,157.8Z"/><path class="cls-19" d="M75.9,152.6h-.06L34.39,140.11a.2.2,0,0,1-.14-.25.21.21,0,0,1,.25-.14L76,152.2a.21.21,0,0,1-.06.4Z"/><path class="cls-19" d="M75.9,147.63h-.06l-19-5.74-22.45-6.76a.2.2,0,0,1-.14-.25.21.21,0,0,1,.25-.13L57,141.5l19,5.73a.21.21,0,0,1-.06.4Z"/><path class="cls-19" d="M72.37,141.2h-.06L34.39,129.9a.2.2,0,0,1,.11-.39l37.93,11.3a.2.2,0,0,1,.13.25A.18.18,0,0,1,72.37,141.2Z"/><path class="cls-19" d="M72.37,136.25h-.06L34.39,125.07a.2.2,0,0,1-.14-.25.21.21,0,0,1,.25-.14l37.93,11.18a.2.2,0,0,1,.13.25A.18.18,0,0,1,72.37,136.25Z"/><path class="cls-19" d="M72.37,131.2h-.06l-15.47-4.58L34.39,120a.2.2,0,0,1-.14-.25.21.21,0,0,1,.25-.14L57,126.23l15.48,4.58a.2.2,0,0,1,.13.25A.2.2,0,0,1,72.37,131.2Z"/><path class="cls-19" d="M68.14,124.84h0l-11.25-3.31L34.39,115a.2.2,0,0,1,.11-.39L57,121.14l11.25,3.31a.2.2,0,0,1,.14.25A.2.2,0,0,1,68.14,124.84Z"/><path class="cls-19" d="M131.1,331.15h0a.19.19,0,0,1-.19-.2l.2-70.89L130.94,213a.19.19,0,0,1,.2-.21.2.2,0,0,1,.21.2l.16,47.07-.2,70.89A.2.2,0,0,1,131.1,331.15Z"/><path class="cls-19" d="M126.75,329.6h0a.19.19,0,0,1-.2-.2l.08-35.36.1-35.42-.11-47a.2.2,0,0,1,.2-.2h0a.2.2,0,0,1,.2.2l.11,47L127,294,127,329.4A.2.2,0,0,1,126.75,329.6Z"/><path class="cls-19" d="M122.09,327.94h0a.19.19,0,0,1-.19-.2l.28-35.23.3-35.29-.16-35.44-.08-11.53a.2.2,0,0,1,.4,0l.08,11.53.16,35.44-.3,35.29-.28,35.23A.2.2,0,0,1,122.09,327.94Z"/><path class="cls-19" d="M117.79,326.41h0a.2.2,0,0,1-.2-.2l.28-70.5-.18-35.39-.08-11.53a.2.2,0,0,1,.2-.2h0a.2.2,0,0,1,.2.2l.08,11.53.18,35.39-.28,70.5A.2.2,0,0,1,117.79,326.41Z"/><path class="cls-19" d="M113.51,324.89h0a.2.2,0,0,1-.2-.2l.12-70.44-.2-35.33L113.09,201a.19.19,0,0,1,.2-.2h0a.19.19,0,0,1,.2.2l.14,17.88.2,35.33-.12,70.44A.2.2,0,0,1,113.51,324.89Z"/><path class="cls-19" d="M109,323.29h0a.21.21,0,0,1-.2-.21l.36-70.23-.26-35.29-.17-17.63a.2.2,0,0,1,.2-.2h0a.2.2,0,0,1,.2.2l.17,17.63.26,35.29-.36,70.24A.2.2,0,0,1,109,323.29Z"/><path class="cls-19" d="M104.45,321.67h0a.19.19,0,0,1-.2-.2l.28-35,.26-35.06-.24-35.22-.14-22a.2.2,0,0,1,.2-.2h0a.2.2,0,0,1,.2.2l.14,22,.24,35.22-.26,35.07-.28,35A.2.2,0,0,1,104.45,321.67Z"/><path class="cls-19" d="M100.07,320.11h0a.2.2,0,0,1-.2-.2l.22-35,.24-35-.12-35.13-.08-21.72a.2.2,0,0,1,.2-.2h0a.2.2,0,0,1,.2.2l.08,21.72.12,35.13-.24,35-.22,35A.2.2,0,0,1,100.07,320.11Z"/><path class="cls-19" d="M95.81,318.59h0a.2.2,0,0,1-.2-.2l.1-34.93.14-35-.1-35.05L95.69,189a.2.2,0,0,1,.2-.2h0a.19.19,0,0,1,.2.2l.06,24.41.1,35.06-.14,35L96,318.39A.2.2,0,0,1,95.81,318.59Z"/><path class="cls-19" d="M91.43,317h0a.2.2,0,0,1-.2-.21l.56-69.68L91.41,181a.21.21,0,0,1,.2-.21h0a.2.2,0,0,1,.2.21l.38,66.1-.56,69.69A.2.2,0,0,1,91.43,317Z"/><path class="cls-19" d="M87.33,315.57h0a.2.2,0,0,1-.2-.2l.08-69.73-.06-34.93,0-30.65a.21.21,0,0,1,.2-.21h0a.2.2,0,0,1,.2.2l0,30.66.06,34.93-.08,69.73A.2.2,0,0,1,87.33,315.57Z"/><path class="cls-19" d="M83,314h0a.2.2,0,0,1-.2-.2l.16-34.73.18-34.8-.2-34.91-.22-34.9,0-13a.2.2,0,0,1,.2-.2h0a.2.2,0,0,1,.2.2l0,13,.22,34.89.2,34.92-.18,34.8-.16,34.73A.2.2,0,0,1,83,314Z"/><path class="cls-19" d="M78.45,312.41h0a.2.2,0,0,1-.2-.2l.18-34.67.2-34.72L78.45,208l-.16-34.82,0-12.91a.21.21,0,0,1,.21-.2h0a.2.2,0,0,1,.2.2l0,12.91L78.85,208,79,242.82l-.21,34.73-.18,34.66A.2.2,0,0,1,78.45,312.41Z"/><path class="cls-19" d="M74.35,311h0a.2.2,0,0,1-.2-.2l.14-34.62.17-34.68-.23-34.81L74,171.87l.21-28.31a.19.19,0,0,1,.2-.19.19.19,0,0,1,.2.2l-.21,28.3.2,34.77.23,34.81-.16,34.68-.14,34.62A.22.22,0,0,1,74.35,311Z"/><path class="cls-19" d="M70.05,309.42h0a.2.2,0,0,1-.2-.2L70,274.67l.22-34.61-.33-69.43L70,136l0-8.44a.2.2,0,0,1,.2-.2h0a.2.2,0,0,1,.2.2V136l0,34.64.32,69.43-.22,34.62-.18,34.55A.2.2,0,0,1,70.05,309.42Z"/><path class="cls-19" d="M65.84,307.92h0a.19.19,0,0,1-.2-.2l.1-34.52.08-34.59L65.7,204l-.1-34.62.12-34.57.06-15.29a.2.2,0,0,1,.2-.2h0a.2.2,0,0,1,.2.2l-.06,15.29L66,169.33,66.1,204l.12,34.66-.08,34.59L66,307.72A.2.2,0,0,1,65.84,307.92Z"/><path class="cls-19" d="M61.52,306.38h0a.19.19,0,0,1-.2-.2l.48-68.89-.22-34.63-.2-34.6.24-34.48.13-15.24a.2.2,0,0,1,.2-.2h0a.2.2,0,0,1,.2.2L62,133.59l-.24,34.47.2,34.59.22,34.64-.48,68.89A.2.2,0,0,1,61.52,306.38Z"/><path class="cls-19" d="M57.22,304.85h0a.2.2,0,0,1-.2-.2l.44-68.79-.2-34.57-.18-34.53.22-34.42.1-15.21a.22.22,0,0,1,.21-.2h0a.2.2,0,0,1,.2.2l-.11,15.22-.22,34.41.18,34.53.2,34.57-.44,68.79A.2.2,0,0,1,57.22,304.85Z"/><path class="cls-19" d="M53.26,303.44h0a.2.2,0,0,1-.2-.2l.1-34.35.12-34.4L53.06,200l-.2-34.48.26-49.56a.2.2,0,0,1,.2-.2h0a.2.2,0,0,1,.2.2l-.26,49.56.2,34.48.22,34.52-.12,34.4-.1,34.35A.2.2,0,0,1,53.26,303.44Z"/><path class="cls-19" d="M49,301.93h0a.2.2,0,0,1-.2-.2L49,233.1l-.1-34.42-.12-34.4L49,130l0-15.17a.2.2,0,0,1,.2-.2h0a.2.2,0,0,1,.2.2L49.36,130l-.14,34.33.12,34.39.1,34.43-.24,68.63A.2.2,0,0,1,49,301.93Z"/><path class="cls-19" d="M44.76,300.42h0a.2.2,0,0,1-.2-.2l.4-68.47-.24-34.4L44.5,163l.1-34.28.06-15.14a.2.2,0,0,1,.2-.2h0a.2.2,0,0,1,.2.21L45,128.7,44.9,163l.22,34.38.25,34.4L45,300.22A.2.2,0,0,1,44.76,300.42Z"/><path class="cls-19" d="M40.62,299h0a.21.21,0,0,1-.2-.21l.16-68.42L40.52,196l0-34.27.18-49.31a.2.2,0,0,1,.2-.2h0a.2.2,0,0,1,.2.2l-.18,49.31,0,34.27L41,230.32l-.16,68.43A.21.21,0,0,1,40.62,299Z"/><path class="cls-19" d="M36.49,297.48h0a.2.2,0,0,1-.2-.21l.06-34.13.1-34.18-.12-34.25-.09-34.22.23-34.14.1-15a.19.19,0,0,1,.2-.19h0a.19.19,0,0,1,.2.2l-.1,15-.22,34.13.08,34.22L36.85,229l-.1,34.18-.06,34.13A.2.2,0,0,1,36.49,297.48Z"/><path class="cls-19" d="M38.58,295.41h0a.2.2,0,0,1-.2-.2l.06-34.14.1-34.18-.12-34.25-.08-34.22.22-34.13.09-12.4c0-.12.08-.22.2-.2a.2.2,0,0,1,.2.2L39,124.29l-.22,34.13.08,34.22.12,34.25-.1,34.19-.06,34.13A.2.2,0,0,1,38.58,295.41Z"/><path class="cls-19" d="M225.46,405.28l-.07,0-26-9.79-34.88-13.12-34-12.35-5.19-1.86a.22.22,0,0,1-.12-.26.2.2,0,0,1,.26-.12l5.18,1.86,34,12.36,34.88,13.11,26,9.8a.2.2,0,0,1-.07.39Z"/><path class="cls-19" d="M225.46,400.19h-.07l-60.9-22.86-34-12.44L125.34,363a.21.21,0,0,1-.12-.26.22.22,0,0,1,.26-.12l5.18,1.89,34,12.44,60.9,22.86a.21.21,0,0,1,.12.26A.21.21,0,0,1,225.46,400.19Z"/><path class="cls-19" d="M225.46,394.61h-.07l-26-9.66L164.49,372l-39.15-14.23a.21.21,0,0,1-.12-.26.21.21,0,0,1,.26-.12l5.18,1.88,34,12.35,34.88,13,26,9.65a.21.21,0,0,1,.12.26A.21.21,0,0,1,225.46,394.61Z"/><path class="cls-19" d="M225.46,389.12h-.07l-26-9.66-34.88-12.93-39.15-14.21a.22.22,0,0,1-.12-.26.2.2,0,0,1,.26-.12l5.18,1.87,34,12.35,34.88,12.92,26,9.66a.21.21,0,0,1,.12.26A.21.21,0,0,1,225.46,389.12Z"/><path class="cls-19" d="M225.46,383.88l-.07,0-26-9.75-34.88-13.05-34-12.08-5.18-1.82a.2.2,0,0,1-.13-.25.21.21,0,0,1,.26-.13l5.18,1.82,34,12.08,34.88,13.05,26,9.76a.2.2,0,0,1-.07.39Z"/><path class="cls-19" d="M225.46,378.3h-.07L164.49,356l-34-12.19L125.34,342a.22.22,0,0,1-.12-.26.2.2,0,0,1,.26-.12l5.18,1.85,34,12.18,60.9,22.28a.21.21,0,0,1,.12.26A.21.21,0,0,1,225.46,378.3Z"/><path class="cls-19" d="M225.46,373h-.07l-60.9-22.36L125.34,336.7a.21.21,0,0,1-.12-.25.21.21,0,0,1,.26-.13l5.18,1.84,34,12.07,60.9,22.36a.21.21,0,0,1,.12.26A.21.21,0,0,1,225.46,373Z"/><path class="cls-19" d="M225.46,367.43h-.07l-26-9.55-34.86-12.74-34-11.88-5.18-1.78a.21.21,0,0,1-.13-.26.22.22,0,0,1,.26-.13l5.18,1.79,34,11.88,34.86,12.75,26,9.54a.2.2,0,0,1-.07.39Z"/><path class="cls-19" d="M225.46,361.9h-.07L164.5,340.16l-39.16-13.9a.21.21,0,0,1-.12-.26.2.2,0,0,1,.26-.12l5.18,1.84,34,12.06,60.9,21.73a.21.21,0,0,1,.12.26A.21.21,0,0,1,225.46,361.9Z"/><path class="cls-19" d="M225.46,356.67h-.07l-26-9.33L164.5,334.82l-34-11.82-5.18-1.79a.21.21,0,0,1-.13-.26.2.2,0,0,1,.26-.12l5.18,1.79,34,11.83L199.49,347l26,9.33a.21.21,0,0,1,.12.26A.21.21,0,0,1,225.46,356.67Z"/><path class="cls-19" d="M225.46,351.35h-.07l-26-9.44L164.5,329.28l-34-11.65-5.18-1.75a.21.21,0,0,1-.13-.26.2.2,0,0,1,.26-.12l5.18,1.75,34,11.65,34.86,12.62,26,9.44a.22.22,0,0,1,.12.26A.21.21,0,0,1,225.46,351.35Z"/><path class="cls-19" d="M225.46,345.75h-.07l-26-9.33L164.5,323.94l-34-11.68-5.18-1.77a.21.21,0,0,1-.13-.26.2.2,0,0,1,.26-.12l5.18,1.77,34,11.68L199.49,336l26,9.33a.22.22,0,0,1,.12.26A.21.21,0,0,1,225.46,345.75Z"/><path class="cls-19" d="M225.46,340.24h-.07l-26-9.14L164.5,318.85l-39.15-13.51a.21.21,0,0,1-.13-.26.2.2,0,0,1,.26-.12l5.18,1.78,34,11.72,34.85,12.25,26,9.14a.2.2,0,0,1,.13.25A.2.2,0,0,1,225.46,340.24Z"/><path class="cls-19" d="M225.46,334.92h-.07l-26-9.14L164.5,313.55l-34-11.56-5.18-1.76a.2.2,0,0,1-.13-.25.2.2,0,0,1,.26-.13l5.18,1.76,34,11.56,34.85,12.22,26,9.14a.21.21,0,0,1,.13.26A.21.21,0,0,1,225.46,334.92Z"/><path class="cls-19" d="M225.46,329.39h-.07l-26-9.12L164.5,308.07l-34-11.35-5.18-1.7a.21.21,0,0,1-.13-.26.21.21,0,0,1,.25-.13l5.19,1.71,34,11.35,34.85,12.19,26,9.12a.21.21,0,0,1,.13.26A.21.21,0,0,1,225.46,329.39Z"/><path class="cls-19" d="M225.46,324.21l-.07,0L164.5,303.06l-39.15-13.27a.21.21,0,0,1-.13-.26.2.2,0,0,1,.26-.12l39.15,13.27,60.89,21.14a.2.2,0,0,1,.13.25A.21.21,0,0,1,225.46,324.21Z"/><path class="cls-19" d="M225.46,318.59h-.07L164.5,297.75l-39.15-13.19a.21.21,0,0,1-.13-.26.2.2,0,0,1,.26-.12l5.18,1.74,34,11.45,60.89,20.83a.2.2,0,0,1,.13.25A.2.2,0,0,1,225.46,318.59Z"/><path class="cls-19" d="M225.46,313.3h-.07l-26-9-34.85-12-34-11.27-5.18-1.7a.2.2,0,0,1-.13-.25.19.19,0,0,1,.25-.13l5.19,1.7,34,11.27,34.85,12,26,9a.2.2,0,0,1-.06.39Z"/><path class="cls-19" d="M225.26,307.73h-.07l-25.84-8.88L164.5,286.89l-34-11.14-5.18-1.68a.21.21,0,0,1-.13-.26.21.21,0,0,1,.25-.13l5.19,1.69,34,11.13,34.85,12,25.85,8.88a.2.2,0,0,1,.12.26A.21.21,0,0,1,225.26,307.73Z"/><path class="cls-19" d="M224.58,302h-.07l-25.18-8.48L164.5,281.79l-34-11.22-5.18-1.7a.21.21,0,0,1-.13-.26.2.2,0,0,1,.25-.12l5.19,1.7,34,11.22,34.83,11.75,25.18,8.48a.2.2,0,0,1,.13.25A.21.21,0,0,1,224.58,302Z"/><path class="cls-19" d="M225,296.91h-.07L164.5,276.35l-34-11-5.18-1.66a.21.21,0,0,1-.13-.25.19.19,0,0,1,.25-.13l5.19,1.66,34,11L225,296.52a.21.21,0,0,1,.13.26A.21.21,0,0,1,225,296.91Z"/><path class="cls-19" d="M224.29,291.19h-.07l-24.89-8.39L164.5,271.1l-34-11.08-5.18-1.68a.21.21,0,0,1-.13-.26.21.21,0,0,1,.25-.13l5.19,1.69,34,11.08,34.84,11.69,24.89,8.39a.2.2,0,0,1,.13.25A.2.2,0,0,1,224.29,291.19Z"/><path class="cls-19" d="M220.54,284.63h-.07l-21.14-7.06L164.5,266l-39.15-12.66a.2.2,0,0,1-.13-.25.19.19,0,0,1,.25-.13l5.19,1.67,34,11,34.84,11.58,21.14,7.05a.21.21,0,0,1,.13.26A.21.21,0,0,1,220.54,284.63Z"/><path class="cls-19" d="M220.54,279.18h-.07l-21.13-7L164.5,260.61l-34-10.84-5.18-1.64a.22.22,0,0,1-.13-.26.21.21,0,0,1,.25-.13l5.19,1.64,34,10.84,34.84,11.54,21.14,7a.19.19,0,0,1,.13.25A.21.21,0,0,1,220.54,279.18Z"/><path class="cls-19" d="M220.54,273.77h-.06l-21.14-7L164.5,255.34l-34-10.79-5.18-1.63a.22.22,0,0,1-.13-.26.21.21,0,0,1,.25-.13l5.19,1.63,34,10.79,34.84,11.47,21.14,7a.21.21,0,0,1,.13.26A.21.21,0,0,1,220.54,273.77Z"/><path class="cls-19" d="M206.85,263.66h-.06L164.5,249.87l-34-10.74-5.18-1.63a.2.2,0,0,1-.13-.25.21.21,0,0,1,.25-.13l5.19,1.63,34,10.74,42.29,13.78a.19.19,0,0,1,.13.25A.2.2,0,0,1,206.85,263.66Z"/><path class="cls-19" d="M206.85,258.43h-.06L199.34,256,164.5,244.67l-34-10.65-5.18-1.61a.21.21,0,0,1-.13-.25.2.2,0,0,1,.25-.14l5.18,1.61,34,10.66L206.91,258a.19.19,0,0,1,.13.25A.2.2,0,0,1,206.85,258.43Z"/><path class="cls-19" d="M197.29,249.85h-.06L164.5,239.1l-34-10.54L125.35,227a.22.22,0,0,1-.13-.26.21.21,0,0,1,.25-.13l5.18,1.6,34,10.54,32.73,10.74a.19.19,0,0,1,.13.25A.2.2,0,0,1,197.29,249.85Z"/><path class="cls-19" d="M182.29,239.75h-.06l-17.73-5.65-34-10.49L125.35,222a.21.21,0,0,1-.13-.25.2.2,0,0,1,.25-.14l5.18,1.59,34,10.49,17.73,5.66a.19.19,0,0,1,.13.25A.18.18,0,0,1,182.29,239.75Z"/><path class="cls-19" d="M223.28,408.34a.22.22,0,0,1-.2-.2l.09-12.33-.2-36.72-.18-36.69.06-33.94a.2.2,0,0,1,.2-.2h0a.2.2,0,0,1,.2.2l-.06,33.94.18,36.69.2,36.72-.09,12.33A.2.2,0,0,1,223.28,408.34Z"/><path class="cls-19" d="M218.57,406.47h0a.2.2,0,0,1-.2-.21l.09-12.19-.53-73.33.18-36.51.11-14.57a.19.19,0,0,1,.2-.19h0a.2.2,0,0,1,.2.2l-.1,14.57-.18,36.5.52,73.33-.09,12.2A.2.2,0,0,1,218.57,406.47Z"/><path class="cls-19" d="M213.59,404.48h0a.2.2,0,0,1-.2-.2V392.21l-.14-36.57-.1-36.54.1-36.46.06-14.54a.2.2,0,0,1,.2-.2.19.19,0,0,1,.2.2l-.06,14.54-.1,36.46.1,36.54.14,36.57v12.07A.2.2,0,0,1,213.59,404.48Z"/><path class="cls-19" d="M208.89,402.61h0a.2.2,0,0,1-.2-.2l.08-11.91-.12-36.5-.14-36.48.18-36.38.1-14.49a.2.2,0,0,1,.2-.2h0a.2.2,0,0,1,.2.2l-.1,14.49-.18,36.38.14,36.48.12,36.5-.07,11.91A.2.2,0,0,1,208.89,402.61Z"/><path class="cls-19" d="M204.37,400.8h0a.2.2,0,0,1-.2-.2l.06-11.77-.52-72.95.26-36.29.23-24.84a.22.22,0,0,1,.21-.2h0a.2.2,0,0,1,.2.2l-.24,24.85-.26,36.28.52,72.94-.06,11.78A.2.2,0,0,1,204.37,400.8Z"/><path class="cls-19" d="M199.41,398.83h0a.22.22,0,0,1-.21-.21l.06-11.64-.16-36.38L199,314.25l.16-36.25.15-24.7a.2.2,0,0,1,.2-.2h0a.2.2,0,0,1,.2.2l-.14,24.7-.16,36.25.14,36.35.16,36.38,0,11.65A.2.2,0,0,1,199.41,398.83Z"/><path class="cls-19" d="M194.87,397h0a.2.2,0,0,1-.19-.21l0-11.51L194.52,349l-.16-36.29.16-36.19.18-30.38a.2.2,0,0,1,.2-.2h0a.2.2,0,0,1,.2.2l-.17,30.38-.17,36.19.17,36.29.17,36.33,0,11.51A.2.2,0,0,1,194.87,397Z"/><path class="cls-19" d="M190.31,395.2h0a.2.2,0,0,1-.2-.2l.06-11.37L190,347.37l-.14-36.23L190,275l.13-30.45a.2.2,0,0,1,.21-.19h0a.2.2,0,0,1,.2.2L190.39,275l-.12,36.14.14,36.23.16,36.26L190.51,395A.2.2,0,0,1,190.31,395.2Z"/><path class="cls-19" d="M185.57,393.31h0a.2.2,0,0,1-.2-.21l.07-11.22-.29-72.35.19-36.06.17-30.48a.2.2,0,0,1,.2-.2h0a.2.2,0,0,1,.2.2l-.17,30.48-.18,36.06.28,72.35-.07,11.23A.2.2,0,0,1,185.57,393.31Z"/><path class="cls-19" d="M180.81,391.41h0a.2.2,0,0,1-.21-.2l.06-11.09L180.48,344l-.14-36.1.16-36,.18-36a.2.2,0,0,1,.2-.2h0a.2.2,0,0,1,.2.2l-.18,36-.16,36,.14,36.1.18,36.14L181,391.21A.2.2,0,0,1,180.81,391.41Z"/><path class="cls-19" d="M176.44,389.67h0a.2.2,0,0,1-.2-.2l0-11-.16-36.07L176,306.38l.32-71.92a.2.2,0,0,1,.2-.2h0a.2.2,0,0,1,.2.2l-.32,71.92.18,36.05.16,36.07-.05,11A.2.2,0,0,1,176.44,389.67Z"/><path class="cls-19" d="M171.84,387.83h0a.2.2,0,0,1-.2-.2l.08-10.82-.21-36-.22-36,.12-71.86a.2.2,0,0,1,.2-.2h0a.2.2,0,0,1,.21.2l-.13,71.86.23,36,.2,36L172,387.64A.19.19,0,0,1,171.84,387.83Z"/><path class="cls-19" d="M167,385.91a.2.2,0,0,1-.2-.2V375l-.14-35.94-.12-35.9.1-35.83.14-35.86a.2.2,0,0,1,.2-.2.2.2,0,0,1,.2.21l-.14,35.86-.1,35.82.12,35.9.14,35.94v10.7A.2.2,0,0,1,167,385.91Z"/><path class="cls-19" d="M162.42,384.08h0a.2.2,0,0,1-.2-.2l.05-10.56,0-35.83,0-35.81.24-71.57a.2.2,0,0,1,.2-.2h0a.2.2,0,0,1,.2.2l-.24,71.57,0,35.81,0,35.83,0,10.56A.2.2,0,0,1,162.42,384.08Z"/><path class="cls-19" d="M158.07,382.34h0a.2.2,0,0,1-.2-.2l.07-10.41-.19-35.83-.16-35.8.24-71.44a.21.21,0,0,1,.2-.2h0a.2.2,0,0,1,.21.2L158,300.1l.17,35.8.18,35.83-.07,10.41A.2.2,0,0,1,158.07,382.34Z"/><path class="cls-19" d="M153.35,380.46h0a.2.2,0,0,1-.2-.2l0-10.28-.28-71.48.52-71.22a.22.22,0,0,1,.2-.2.19.19,0,0,1,.2.2l-.52,71.22L153.6,370l0,10.28A.2.2,0,0,1,153.35,380.46Z"/><path class="cls-19" d="M149,378.74h0a.19.19,0,0,1-.19-.2l.06-10.16L148.53,297l.4-71.14a.2.2,0,0,1,.2-.2h0a.2.2,0,0,1,.2.2l-.4,71.14.36,71.38-.06,10.16A.2.2,0,0,1,149,378.74Z"/><path class="cls-19" d="M144.54,377h0a.2.2,0,0,1-.2-.2l.08-10-.33-71.24.12-71.11a.2.2,0,0,1,.21-.2h0a.2.2,0,0,1,.2.2l-.12,71.11.32,71.24-.08,10A.2.2,0,0,1,144.54,377Z"/><path class="cls-19" d="M139.85,375.08h0a.2.2,0,0,1-.2-.2l0-9.9-.12-35.55-.1-35.53.12-35.45.14-35.49a.2.2,0,0,1,.2-.2h0a.2.2,0,0,1,.2.2L140,258.45l-.12,35.45.1,35.53.12,35.55,0,9.9A.2.2,0,0,1,139.85,375.08Z"/><path class="cls-19" d="M135.46,373.33h0a.2.2,0,0,1-.2-.2l0-9.77-.08-35.48-.06-35.45,0-35.42.06-35.45a.2.2,0,0,1,.2-.2h0a.2.2,0,0,1,.2.2L135.59,257l0,35.42.06,35.45.08,35.48,0,9.77A.2.2,0,0,1,135.46,373.33Z"/><path class="cls-19" d="M131.14,371.6h0a.19.19,0,0,1-.19-.2l.08-9.62-.32-70.88,0-70.76a.2.2,0,0,1,.2-.2h0a.2.2,0,0,1,.2.2l0,70.76.32,70.88-.08,9.63A.19.19,0,0,1,131.14,371.6Z"/><path class="cls-19" d="M225.46,408.27h-.07L183.26,392.4a.2.2,0,0,1-.12-.26.2.2,0,0,1,.26-.11l42.13,15.85a.21.21,0,0,1,.12.26A.21.21,0,0,1,225.46,408.27Z"/><path class="cls-19" d="M225.46,403.18h-.07l-63.2-23.72-34-12.44L123,365.12a.21.21,0,0,1-.12-.26.21.21,0,0,1,.26-.12l5.18,1.89,34,12.44,63.2,23.72a.21.21,0,0,1,.12.26A.21.21,0,0,1,225.46,403.18Z"/><path class="cls-19" d="M225.46,397.59h-.07l-28.32-10.51-34.88-13L123,359.89a.22.22,0,0,1-.12-.26.21.21,0,0,1,.26-.12l5.18,1.88,34,12.35,34.88,12.95,28.32,10.51a.21.21,0,0,1,.12.26A.21.21,0,0,1,225.46,397.59Z"/><path class="cls-19" d="M225.46,392.1h-.07l-28.32-10.51-34.88-12.93L123,354.43a.21.21,0,0,1-.12-.26.22.22,0,0,1,.26-.12l5.18,1.88,34,12.34,34.88,12.93,28.32,10.51a.21.21,0,0,1,.12.26A.21.21,0,0,1,225.46,392.1Z"/><path class="cls-19" d="M225.46,386.86h-.07l-28.32-10.61-34.88-13.05-34-12.08-5.18-1.82a.2.2,0,1,1,.13-.38l5.18,1.82,34,12.08,34.88,13.05,28.32,10.61a.21.21,0,0,1,.12.26A.21.21,0,0,1,225.46,386.86Z"/><path class="cls-19" d="M225.46,381.27h-.07l-63.2-23.12-34-12.19L123,344.1a.2.2,0,0,1-.12-.25.21.21,0,0,1,.26-.13l5.18,1.85,34,12.19,63.2,23.12a.2.2,0,0,1-.07.39Z"/><path class="cls-19" d="M225.46,376h-.07l-63.2-23.2L123,338.83a.21.21,0,0,1-.12-.26.2.2,0,0,1,.26-.12l5.18,1.84,34,12.07,63.2,23.2a.21.21,0,0,1,.12.26A.21.21,0,0,1,225.46,376Z"/><path class="cls-19" d="M225.46,370.4h-.07L197.05,360l-34.86-12.75-34-11.87-5.18-1.79a.2.2,0,0,1-.13-.25.21.21,0,0,1,.26-.13l5.18,1.79,34,11.87,34.86,12.75L225.53,370a.2.2,0,0,1-.07.39Z"/><path class="cls-19" d="M225.46,364.85h-.07L162.2,342.29,123,328.39a.22.22,0,0,1-.12-.26.2.2,0,0,1,.26-.12l5.18,1.83,34,12.07,63.2,22.55a.21.21,0,0,1,.12.26A.21.21,0,0,1,225.46,364.85Z"/><path class="cls-19" d="M225.46,359.62h-.07l-28.34-10.16L162.19,337l-34-11.82-5.18-1.8a.2.2,0,0,1-.13-.25.2.2,0,0,1,.26-.13l5.18,1.8,34,11.82,34.86,12.5,28.34,10.16a.21.21,0,0,1,.12.26A.21.21,0,0,1,225.46,359.62Z"/><path class="cls-19" d="M225.46,354.31h-.07L197.05,344,162.19,331.4l-34-11.64L123.05,318a.2.2,0,0,1-.13-.25.2.2,0,0,1,.26-.13l5.18,1.76,34,11.64,34.86,12.63,28.34,10.27a.22.22,0,0,1,.12.26A.21.21,0,0,1,225.46,354.31Z"/><path class="cls-19" d="M225.46,348.7h-.07l-28.34-10.16-34.86-12.46-34-11.68-5.18-1.78a.2.2,0,0,1-.13-.25.21.21,0,0,1,.26-.13l5.18,1.78,34,11.68,34.86,12.47,28.34,10.15a.22.22,0,0,1,.12.26A.21.21,0,0,1,225.46,348.7Z"/><path class="cls-19" d="M225.46,343.17h-.07l-28.34-9.94L162.2,321l-39.15-13.5a.21.21,0,0,1-.13-.26.22.22,0,0,1,.26-.13l5.18,1.79,34,11.72,34.86,12.25,28.33,9.94a.21.21,0,0,1,.13.26A.21.21,0,0,1,225.46,343.17Z"/><path class="cls-19" d="M225.46,337.86h-.07l-28.34-10L162.2,315.68l-34-11.57-5.18-1.75a.21.21,0,0,1-.13-.26.2.2,0,0,1,.26-.12l5.18,1.75,34,11.57,34.86,12.22,28.33,10a.2.2,0,0,1,.13.25A.21.21,0,0,1,225.46,337.86Z"/><path class="cls-19" d="M225.46,332.32h-.07l-28.34-9.93L162.2,310.2l-34-11.35-5.18-1.71a.19.19,0,0,1-.13-.25.2.2,0,0,1,.25-.13l5.19,1.71,34,11.35L197.19,322l28.33,9.93a.21.21,0,0,1,.13.26A.21.21,0,0,1,225.46,332.32Z"/><path class="cls-19" d="M225.46,327.13h-.07L162.2,305.19l-39.15-13.28a.19.19,0,0,1-.13-.25.2.2,0,0,1,.26-.12l39.15,13.27,63.19,21.93a.21.21,0,0,1,.13.26A.21.21,0,0,1,225.46,327.13Z"/><path class="cls-19" d="M225.46,321.5h-.07L162.2,299.87l-39.15-13.19a.19.19,0,0,1-.13-.25.21.21,0,0,1,.26-.13l5.18,1.74,34,11.45,63.19,21.62a.21.21,0,0,1,.13.26A.21.21,0,0,1,225.46,321.5Z"/><path class="cls-19" d="M225.46,316.22h-.07l-28.34-9.8-34.85-12-34-11.27-5.18-1.7a.21.21,0,0,1-.13-.26.21.21,0,0,1,.25-.13l5.19,1.71,34,11.27,34.86,12,28.33,9.8a.21.21,0,0,1,.13.26A.21.21,0,0,1,225.46,316.22Z"/><path class="cls-19" d="M225.08,310.59H225l-28-9.62L162.2,289l-34-11.13-5.18-1.69a.19.19,0,0,1-.13-.25.2.2,0,0,1,.25-.13l5.19,1.68,34,11.14,34.85,11.95,28,9.62a.2.2,0,0,1,.13.25A.2.2,0,0,1,225.08,310.59Z"/><path class="cls-19" d="M224.17,304.79h-.07L197,295.66,162.2,283.92l-34-11.22-5.18-1.7a.21.21,0,0,1-.13-.26.21.21,0,0,1,.25-.13l5.19,1.71,34,11.21,34.83,11.75,27.07,9.12a.21.21,0,0,1,.13.25A.2.2,0,0,1,224.17,304.79Z"/><path class="cls-19" d="M224.76,299.75h-.07L162.2,278.47l-34-11-5.18-1.66a.22.22,0,0,1-.13-.26.21.21,0,0,1,.25-.13l5.19,1.66,34,11,62.49,21.27a.2.2,0,0,1-.06.39Z"/><path class="cls-19" d="M224.62,294.21l-.06,0L197,284.92,162.2,273.23l-34-11.08-5.18-1.69a.2.2,0,1,1,.12-.38l5.19,1.68,34,11.09,34.83,11.69,27.53,9.27a.21.21,0,0,1-.07.4Z"/><path class="cls-19" d="M220.47,287.37h-.07L197,279.69,162.2,268.11l-39.15-12.67a.19.19,0,0,1-.13-.25.21.21,0,0,1,.25-.13l5.19,1.67,34,11,34.83,11.58L220.53,287a.2.2,0,0,1,.13.25A.21.21,0,0,1,220.47,287.37Z"/><path class="cls-19" d="M219.78,281.79h-.06l-57.52-19-34-10.83-5.18-1.65a.2.2,0,0,1-.13-.25.21.21,0,0,1,.25-.13l5.18,1.64,34,10.84,57.53,19a.21.21,0,0,1-.07.4Z"/><path class="cls-19" d="M219.83,276.39h-.06L197,268.92,162.2,257.46l-34-10.79L123.05,245a.2.2,0,0,1-.13-.25.19.19,0,0,1,.25-.13l5.18,1.63,34,10.79,34.84,11.46L219.9,276a.19.19,0,0,1,.12.25A.2.2,0,0,1,219.83,276.39Z"/><path class="cls-19" d="M205.49,266.08h-.06L162.2,252l-34-10.74-5.18-1.63a.2.2,0,0,1-.13-.25.19.19,0,0,1,.25-.13l5.18,1.63,34,10.74,43.23,14.07a.21.21,0,0,1,.13.26A.21.21,0,0,1,205.49,266.08Z"/><path class="cls-19" d="M205.49,260.9h-.06l-8.4-2.77L162.2,246.8l-34-10.66-5.19-1.61a.2.2,0,0,1-.13-.25.21.21,0,0,1,.25-.13l5.18,1.61,34,10.65,34.84,11.32,8.39,2.78a.2.2,0,0,1,.13.25A.2.2,0,0,1,205.49,260.9Z"/><path class="cls-19" d="M196.94,252.61h-.06L162.2,241.23l-34-10.54-5.19-1.6a.2.2,0,0,1-.13-.25.2.2,0,0,1,.25-.13l5.18,1.59,34,10.54L197,252.22a.2.2,0,0,1,.13.26A.21.21,0,0,1,196.94,252.61Z"/><path class="cls-19" d="M180,241.88h-.06l-17.73-5.66-34-10.49-5.19-1.59a.2.2,0,1,1,.12-.38l5.18,1.59,34,10.49,17.73,5.66a.19.19,0,0,1,.13.25A.2.2,0,0,1,180,241.88Z"/><path class="cls-19" d="M221,407.44h0a.22.22,0,0,1-.2-.21l.07-9.29-.2-36.72-.18-36.69,0-33.94a.21.21,0,0,1,.21-.21h0a.2.2,0,0,1,.2.21l-.06,33.93.18,36.69.2,36.73-.07,9.3A.2.2,0,0,1,221,407.44Z"/><path class="cls-19" d="M216.29,405.56h0a.2.2,0,0,1-.2-.2l.07-9.16-.53-73.33.19-36.51.1-16a.2.2,0,0,1,.2-.2h0a.22.22,0,0,1,.2.21l-.1,16L216,322.87l.52,73.33-.07,9.16A.2.2,0,0,1,216.29,405.56Z"/><path class="cls-19" d="M211.29,403.56h0a.2.2,0,0,1-.2-.2v-9L211,357.77l-.1-36.54.1-36.46.06-15.95a.2.2,0,0,1,.2-.2h0a.2.2,0,0,1,.2.2l-.06,15.95-.1,36.46.1,36.53.14,36.57v9A.2.2,0,0,1,211.29,403.56Z"/><path class="cls-19" d="M206.61,401.7h0a.2.2,0,0,1-.2-.2l.06-8.87-.12-36.51-.15-36.48.19-36.37.1-15.9a.2.2,0,0,1,.2-.2h0a.2.2,0,0,1,.2.2l-.1,15.9-.18,36.37.14,36.48.12,36.51-.06,8.87A.2.2,0,0,1,206.61,401.7Z"/><path class="cls-19" d="M202.09,399.89h0a.19.19,0,0,1-.2-.2l0-8.74L201.41,318l.26-36.28.24-24.85a.19.19,0,0,1,.2-.19h0a.2.2,0,0,1,.2.2l-.24,24.84L201.81,318l.53,72.95-.05,8.74A.2.2,0,0,1,202.09,399.89Z"/><path class="cls-19" d="M197.12,397.91h0a.2.2,0,0,1-.2-.2l0-8.6-.16-36.38-.14-36.35.16-36.25.14-24.7a.2.2,0,0,1,.2-.2h0a.2.2,0,0,1,.2.2l-.14,24.7-.16,36.25.14,36.35.16,36.38,0,8.6A.2.2,0,0,1,197.12,397.91Z"/><path class="cls-19" d="M192.58,396.1h0a.19.19,0,0,1-.2-.2l0-8.47-.18-36.33-.16-36.29.16-36.19.18-30.38a.19.19,0,0,1,.2-.2h0a.2.2,0,0,1,.2.2l-.18,30.38-.16,36.19.16,36.29.19,36.33,0,8.47A.2.2,0,0,1,192.58,396.1Z"/><path class="cls-19" d="M188,394.29h0a.2.2,0,0,1-.2-.2l.05-8.34-.16-36.25-.14-36.24.12-36.13.14-30.45a.2.2,0,0,1,.2-.2h0a.2.2,0,0,1,.2.2l-.14,30.45L188,313.26l.14,36.24.16,36.25,0,8.34A.2.2,0,0,1,188,394.29Z"/><path class="cls-19" d="M183.29,392.4h0a.2.2,0,0,1-.19-.2l0-8.19-.29-72.35L183,275.6l.17-30.49a.2.2,0,0,1,.2-.2h0a.2.2,0,0,1,.2.2l-.17,30.49-.18,36.06.28,72.35,0,8.19A.2.2,0,0,1,183.29,392.4Z"/><path class="cls-19" d="M178.52,390.5h0a.2.2,0,0,1-.2-.2l0-8.06-.18-36.13L178,310l.16-36,.18-36a.2.2,0,0,1,.2-.2h0a.21.21,0,0,1,.2.21l-.18,36-.16,36,.14,36.1.18,36.13,0,8.06A.2.2,0,0,1,178.52,390.5Z"/><path class="cls-19" d="M174.16,388.76h0a.2.2,0,0,1-.2-.21l0-7.92-.16-36.07-.18-36.05.32-71.92a.2.2,0,0,1,.2-.2h0a.2.2,0,0,1,.2.2l-.32,71.92.18,36.05.16,36.07,0,7.93A.19.19,0,0,1,174.16,388.76Z"/><path class="cls-19" d="M169.56,386.93h0a.21.21,0,0,1-.2-.21l.06-7.78-.21-36-.22-36,.12-71.86a.2.2,0,0,1,.2-.2h0a.2.2,0,0,1,.2.2l-.13,71.86.23,36,.2,36,0,7.79A.2.2,0,0,1,169.56,386.93Z"/><path class="cls-19" d="M164.72,385a.2.2,0,0,1-.2-.21v-7.65l-.14-35.94-.12-35.91.1-35.82.14-35.86a.2.2,0,0,1,.2-.2h0a.2.2,0,0,1,.2.2l-.14,35.86-.1,35.82.12,35.91.14,35.93v7.66A.2.2,0,0,1,164.72,385Z"/><path class="cls-19" d="M160.13,383.17h0a.2.2,0,0,1-.2-.21l0-7.51,0-35.83,0-35.81.24-71.57a.2.2,0,0,1,.2-.2h0a.2.2,0,0,1,.2.2l-.24,71.57,0,35.81,0,35.83,0,7.52A.2.2,0,0,1,160.13,383.17Z"/><path class="cls-19" d="M155.79,381.43h0a.2.2,0,0,1-.2-.2l0-7.38L155.45,338l-.16-35.79.24-71.44a.2.2,0,0,1,.21-.2h0a.2.2,0,0,1,.2.2l-.25,71.44.16,35.79.19,35.83,0,7.38A.19.19,0,0,1,155.79,381.43Z"/><path class="cls-19" d="M151.06,379.55h0a.2.2,0,0,1-.2-.2l0-7.25-.28-71.47.52-71.23a.18.18,0,0,1,.21-.19.19.19,0,0,1,.19.2L151,300.63l.28,71.47,0,7.25A.2.2,0,0,1,151.06,379.55Z"/><path class="cls-19" d="M146.75,377.83a.2.2,0,0,1-.21-.2l.05-7.12-.36-71.38.4-71.15a.2.2,0,0,1,.2-.2h0a.2.2,0,0,1,.2.21l-.4,71.14.36,71.38,0,7.12A.2.2,0,0,1,146.75,377.83Z"/><path class="cls-19" d="M142.27,376a.2.2,0,0,1-.2-.2l.05-7-.33-71.23.13-71.12a.2.2,0,0,1,.2-.2h0a.2.2,0,0,1,.2.21l-.12,71.11.32,71.23-.05,7A.2.2,0,0,1,142.27,376Z"/><path class="cls-19" d="M137.56,374.17h0a.2.2,0,0,1-.2-.2l0-6.86-.12-35.56-.1-35.52.12-35.45.14-35.49a.2.2,0,0,1,.2-.2h0a.19.19,0,0,1,.2.2l-.14,35.49L137.56,296l.1,35.52.12,35.56,0,6.86A.2.2,0,0,1,137.56,374.17Z"/><path class="cls-19" d="M133.17,372.42h0a.2.2,0,0,1-.2-.21l0-6.72L132.91,330l-.06-35.46,0-35.41.06-35.46a.2.2,0,0,1,.2-.2h0a.2.2,0,0,1,.2.2l-.06,35.46,0,35.41.06,35.45.08,35.49,0,6.73A.2.2,0,0,1,133.17,372.42Z"/><path class="cls-19" d="M128.86,370.7h0a.2.2,0,0,1-.2-.2l.06-6.59L128.4,293l0-70.77a.2.2,0,0,1,.2-.2h0a.2.2,0,0,1,.2.2l0,70.77.32,70.88-.06,6.59A.2.2,0,0,1,128.86,370.7Z"/><path class="cls-19" d="M124.28,368.87h0a.2.2,0,0,1-.2-.2l0-6.47-.18-35.39-.16-35.36.26-35.23.29-35.26c0-.11.08-.18.2-.2a.2.2,0,0,1,.2.2l-.28,35.27-.27,35.22.17,35.36.18,35.39,0,6.47A.2.2,0,0,1,124.28,368.87Z"/><path class="cls-19" d="M126.57,369.78h0a.2.2,0,0,1-.2-.2l0-9.5-.18-35.4-.16-35.36.26-35.22.29-35.27a.2.2,0,0,1,.2-.2h0a.22.22,0,0,1,.2.21l-.28,35.26-.27,35.22.17,35.36.18,35.4,0,9.5A.2.2,0,0,1,126.57,369.78Z"/><path class="cls-7" d="M29.13,345.35l189.62,65.57C218.81,340.6,229.68,256,142,239.45,61.33,224.2,75.12,126.55,29.13,123.64Z"/><path class="cls-8" d="M218.82,411l-.09,0L29.06,345.4V123.57h.07c20.16,1.28,28.9,20.82,39,43.43,13.37,29.91,28.53,63.81,73.88,72.38a111.84,111.84,0,0,1,26.06,8.08A79.9,79.9,0,0,1,187.58,260c10.35,9.14,17.88,20.83,23,35.76,9.49,27.6,9,61.41,8.46,94.11-.11,6.94-.22,14.12-.23,21ZM29.2,345.3l189.49,65.52c0-6.86.11-14,.22-20.92.51-32.69,1-66.49-8.45-94.07-10.73-31.22-33.12-49.64-68.46-56.32-20.23-3.82-36.3-13.14-49.12-28.5C81.69,197.62,74.43,181.39,68,167.06c-10.08-22.55-18.79-42-38.82-43.35Z"/><path class="cls-20" d="M20.27,272.67v-120c45.65,5,34.45,94.32,112.16,104.63,81.09,10.76,76.16,102,76.11,157.7l-23.68-9.4Z"/><path class="cls-4" d="M11.11,358.71V185.88c40.41,5.51,28.32,78.66,104.38,92.78C195,293.42,196,357.62,196,420.1Z"/><path class="cls-21" d="M196.09,420.19l-.09,0L11,358.76V185.81h.08c17.21,2.34,25,17,33.92,34C57,242.38,71.8,270.48,115.5,278.59a124.19,124.19,0,0,1,26.3,7.76,85.28,85.28,0,0,1,19.86,11.8c10.64,8.55,18.48,19.45,24,33.31,10.45,26.36,10.45,59.44,10.45,88.64ZM11.18,358.66,196,420c0-29.16,0-62.2-10.44-88.5-11.46-28.9-34.37-46.17-70-52.79C96,275.11,80.57,267.31,68.36,254.9c-10.65-10.81-17.44-23.68-23.44-35C36,203,28.27,188.33,11.18,186Z"/><path class="cls-22" d="M0,367.73l181.94,58.06c1.29-68.51-8.12-109.18-90.38-124.69-63-11.89-52.93-81.25-91.56-87.28Z"/><path class="cls-12" d="M238.38,200.38l4.17-.75c5.65-1,6.34-1.26,12-2.27.78-.05,1.12,1.36.57,1.75L243,201.72l-3.64.69Z"/><path class="cls-7" d="M242.39,208.83l-.29.09-.3.06-.3.05-.31,0h-.34l.31,0,.3-.05.3-.06.29-.09.29-.1.27-.12.28-.14.26-.16.25-.18.25-.19.23-.21.23-.23.22-.25.2-.26.19-.28.18-.3.17-.3.15-.33.14-.33.12-.35.11-.36.09-.37.07-.38.06-.4,0-.4,0-.42v-1.06l0-.21,0-.21,0-.21,0-.2,0-.21,0-.2,0-.21,0-.2-.06-.2-.05-.2-.06-.19-.07-.2-.07-.19-.07-.19-.07-.19-.08-.19-.08-.18-.09-.18-.09-.18-.09-.18-.1-.17-.09-.17-.1-.17-.11-.17-.11-.16-.11-.16-.11-.16-.12-.16-.12-.15-.23-.28-.25-.27-.26-.26-.26-.24-.28-.23-.28-.21-.28-.2-.3-.18-.29-.17-.31-.14-.3-.13-.31-.11-.32-.09-.31-.08-.32,0-.32,0-.31,0h.34l.31,0,.32,0,.32,0,.31.08.32.09.31.11.3.13.31.14.29.17.3.18.28.2.28.21.28.23.26.24.26.26.24.27.24.28.12.15.12.16.11.16.11.16.11.16.1.17.1.17.1.17.1.17.09.18.09.18.09.18.08.18.08.19.07.19.07.19.07.19.07.2.06.19.05.2.06.2,0,.2,0,.21,0,.2,0,.21,0,.2,0,.21,0,.21,0,.21v1.06l0,.42,0,.4-.06.4-.07.38-.09.37-.11.36-.12.35-.14.33-.15.33-.17.3-.18.3-.19.28-.2.26-.22.25-.23.23-.23.21-.25.19-.25.18-.26.16-.28.14-.27.12-.29.1Zm-8.07-8.61,0-.23v-.22l.05-.2.08-.17.1-.15.12-.12.14-.08.16,0h-.34l-.16,0-.14.08-.12.12-.1.15-.08.17,0,.2,0,.22,0,.23.05.21.08.2.1.18.12.16.15.13.16.09.17.05h.34l-.17-.05-.16-.09-.15-.13-.12-.16-.1-.18-.08-.2-.05-.21Zm4.68,5.57.18,0h-.34l-.18,0-.16.07-.14.11-.11.15-.08.18-.06.21v.23l0,.24,0,.24.09.22.12.2.14.18.16.15.18.11.19.07.19,0h.34l-.19,0-.19-.07L239,208l-.16-.15-.14-.18-.12-.2-.09-.22,0-.24,0-.24v-.23l.05-.21.09-.18.11-.15.14-.11.16-.07Zm4.85-4.64.18-.08.2,0h-.33l-.2,0-.18.08-.16.13-.12.16-.1.2-.06.22,0,.25,0,.25.06.24.1.23.13.21.16.18.18.15.2.11.22.06.22,0h.34l-.22,0-.22-.06-.2-.11-.18-.15-.16-.18-.13-.21-.1-.23-.06-.24,0-.25,0-.25.06-.22.09-.2.13-.16.15-.13Zm-4.29-6.78h-.34l-.18,0-.16.09-.13.13-.12.17-.08.19-.05.21,0,.23,0,.24.06.23.09.2.11.19.14.16.17.12.18.09.19,0h.34l-.2,0-.17-.09-.17-.12-.14-.16-.11-.19-.09-.2-.06-.23,0-.24v-.23l.06-.21.08-.19.11-.17.14-.13.16-.09.18,0ZM235.19,204v-.22l0-.21.06-.19.08-.17.12-.14.14-.11.15-.06.17,0h-.34l-.16,0-.16.06-.14.11-.12.14-.08.17,0,.19,0,.21V204l0,.22.07.21.11.21.13.18.15.15.15.11.17.07.17,0h.34l-.17,0-.17-.07-.16-.11-.14-.15-.13-.18-.11-.21-.07-.21,0-.22Zm6.93,1.21.19-.06.19,0h-.34l-.19,0-.18.06-.17.11-.14.16-.1.18-.06.21,0,.22,0,.24,0,.24.09.23.12.23.16.2.17.17.19.12.19.08.2,0h.34l-.2,0-.19-.08-.19-.12-.17-.17-.16-.2-.12-.23-.09-.23-.05-.24v-.24l0-.22.06-.21.1-.18.14-.16.16-.11Zm.57-8.32.18-.08.2,0h-.34l-.2,0-.18.08-.17.13-.13.17-.11.19-.06.21,0,.23v.24l0,.23.09.23.12.21.16.19.18.15.19.1.19.07h.34l-.19-.07-.19-.1-.18-.15-.16-.19-.12-.21-.09-.23-.05-.23v-.24l0-.23.06-.21.1-.19.14-.17.17-.13Zm-6.86-.42v-.22l0-.21.05-.19.09-.18.12-.16.14-.12.16-.08.16,0h-.34l-.16,0-.16.08-.14.12-.12.16-.09.18-.05.19,0,.21v.22l0,.22.07.2.1.2.14.17.15.13.16.1.17.05h.34l-.17-.05-.17-.1-.14-.13-.14-.17-.1-.2-.08-.2Z"/><path class="cls-12" d="M235.77,195.52a.78.78,0,0,1,1.25.21,1.34,1.34,0,0,1-.05,1.61.79.79,0,0,1-1.26-.24,1.34,1.34,0,0,1,.06-1.58Zm6.41,1.51a1,1,0,0,1,1.48.26,1.36,1.36,0,0,1-.06,1.74,1,1,0,0,1-1.48-.29,1.37,1.37,0,0,1,.06-1.71Zm-.56,8.3a1,1,0,0,1,1.46.4,1.36,1.36,0,0,1-.06,1.74c-.43.36-1.08.16-1.46-.43a1.37,1.37,0,0,1,.06-1.71Zm-6.5-2.25c.35-.35.91-.21,1.24.33a1.35,1.35,0,0,1-.05,1.6c-.37.34-.92.17-1.24-.36a1.34,1.34,0,0,1,.05-1.57Zm4.3-8.72a1.24,1.24,0,0,1,1,1.27c0,.66-.43,1.14-1,1.08a1.23,1.23,0,0,1-1-1.27,1,1,0,0,1,.94-1.08Zm4.69,6.67a1.48,1.48,0,0,1,1.1,1.44c0,.7-.47,1.18-1.07,1.07a1.48,1.48,0,0,1-1.08-1.43c0-.69.46-1.17,1.05-1.08ZM239,205.78a1.47,1.47,0,0,1,1,1.42c0,.66-.43,1.08-1,1a1.45,1.45,0,0,1-1-1.41c0-.65.4-1.08.93-1ZM234.79,199a1.24,1.24,0,0,1,.88,1.26c0,.62-.39,1.06-.86,1A1.23,1.23,0,0,1,234,200c0-.61.36-1.05.83-1Zm4.32-5.36a4.72,4.72,0,0,0-4.1,1.8,7.5,7.5,0,0,0-1.55,4.84,10.08,10.08,0,0,0,1.63,5.39,7.4,7.4,0,0,0,4.18,3.22,4.8,4.8,0,0,0,4.61-1.17,7.21,7.21,0,0,0,2-5.38,10,10,0,0,0-2.15-6A6.73,6.73,0,0,0,239.11,193.65Z"/><path class="cls-12" d="M142.16,178.42l4.17-.84c5.65-1.16,7.18-1.6,12.88-2.73.79-.08,1.12,1.33.57,1.73l-13,3.08-3.64.77Z"/><path class="cls-7" d="M146.17,186.87l-.29.09-.3.06-.3,0-.31,0h-.34l.31,0,.3,0,.3-.06.29-.09.29-.1.28-.12.27-.14.26-.16.25-.18.25-.19.23-.21.23-.23.22-.25.2-.26.19-.28.18-.3.17-.3.15-.32.14-.34.12-.35.11-.36.09-.37.07-.38.06-.4,0-.4,0-.42v-1.06l0-.21,0-.21,0-.2,0-.21,0-.21,0-.2,0-.21,0-.2-.06-.2-.05-.2-.06-.19-.07-.2-.06-.19-.08-.19-.07-.19-.08-.18-.08-.19-.09-.18-.09-.18-.09-.18-.09-.17-.1-.17-.1-.17-.11-.17L148,175l-.11-.16-.11-.16-.12-.16-.11-.15-.24-.28-.25-.27-.26-.26-.26-.24-.28-.23-.28-.21-.28-.2-.29-.18-.3-.16-.31-.15-.3-.13-.31-.11-.31-.09-.32-.08-.32-.05-.31,0-.32,0h.34l.31,0,.32,0,.32.05.32.08.31.09.31.11.3.13.31.15.29.16.3.18.28.2.28.21.28.23.26.24.26.26.25.27.23.28.12.15.12.16.11.16.11.16.11.16.1.17.11.17.09.17.1.17.09.18.09.18.09.18.08.19.08.18.07.19.07.19.07.19.07.2.06.19,0,.2.05.2.05.2,0,.21,0,.2,0,.21,0,.21,0,.2,0,.21,0,.21v1.06l0,.42,0,.4-.06.4-.07.38-.09.37-.11.36-.12.35-.14.34-.15.32-.17.3-.18.3-.19.28-.21.26-.21.25-.23.23-.23.21-.25.19-.25.18-.26.16-.27.14-.28.12-.29.1Zm-8.07-8.61,0-.23,0-.22,0-.2.08-.17.1-.15.12-.12.15-.08.15,0h-.34l-.15,0-.15.08-.12.12-.1.15-.08.17,0,.2,0,.22,0,.23.05.21.08.2.1.19.13.15.14.13.16.09.17.05h.34l-.17-.05-.16-.09-.14-.13-.13-.15-.1-.19-.08-.2-.05-.21Zm4.68,5.57.18,0h-.34l-.18,0-.16.07-.14.12-.11.14-.08.18-.06.21v.23l0,.24,0,.24.09.22.12.2.14.18.16.15.18.11.19.07.19,0h.34l-.19,0-.19-.07-.18-.11-.16-.15-.14-.18-.12-.2-.09-.22,0-.24,0-.24v-.23l.06-.21.08-.18.11-.14.14-.12.16-.07Zm4.86-4.64.18-.08.2,0h-.34l-.2,0-.18.08-.16.13-.12.16-.1.2-.06.22v.25l0,.25.06.25.1.22.13.21.16.18.19.15.2.11.21.06.22,0h.34l-.22,0-.21-.06-.21-.11-.18-.15-.16-.18-.13-.21-.1-.22-.06-.25,0-.25v-.25l.06-.22.09-.2.13-.16.16-.13Zm-4.3-6.78H143l-.17.05-.16.09-.14.14-.12.16-.08.19-.05.21,0,.24,0,.23.06.23.09.2.11.19.15.16.16.12.18.09.19,0h.34l-.19,0-.18-.09-.17-.12-.14-.16-.11-.19-.09-.2-.06-.23,0-.23,0-.24,0-.21.08-.19.12-.16.14-.14.16-.09.17-.05ZM139,182.05v-.22l0-.2,0-.2.08-.17.12-.14.14-.11.16-.06.16,0h-.34l-.16,0L139,181l-.14.11-.11.14-.09.17,0,.2,0,.2v.22l0,.22.08.21.1.21.13.18.15.15.16.11.16.07.17,0H140l-.17,0-.17-.07-.15-.11-.15-.15-.13-.18-.11-.21-.07-.21,0-.22Zm6.94,1.21.18-.06.19,0h-.34l-.19,0-.18.06-.17.11-.13.16-.1.18-.07.21,0,.22v.24l0,.24.09.23.12.23.16.2.17.17.19.12.2.08.19,0h.34l-.19,0-.2-.08-.19-.12-.17-.17-.16-.2-.12-.23-.09-.23,0-.24v-.24l0-.22.06-.21.1-.18.14-.16.17-.11Zm.56-8.32.18-.08.2,0h-.34l-.2,0-.18.08-.17.13-.13.17-.11.19-.06.22,0,.22,0,.24,0,.23.09.23.13.21.15.19.18.15.19.1.2.07H147l-.19-.07-.19-.1-.18-.15-.15-.19-.13-.21-.09-.23,0-.23,0-.24,0-.22.06-.22.11-.19.13-.17.17-.13Zm-6.86-.42v-.21l0-.21.06-.2.08-.18.12-.16.14-.12.16-.08.16,0H140l-.16,0-.16.08-.14.12-.12.16-.08.18-.06.2,0,.21v.21l0,.22.07.21.11.19.13.17.15.13.16.1.17.05h.34l-.17-.05-.16-.1-.15-.13-.13-.17-.11-.19-.07-.21Z"/><path class="cls-12" d="M139.55,173.56a.79.79,0,0,1,1.26.21,1.36,1.36,0,0,1-.06,1.61.78.78,0,0,1-1.25-.24,1.33,1.33,0,0,1,.05-1.58Zm6.41,1.51a1,1,0,0,1,1.48.26,1.36,1.36,0,0,1-.06,1.74,1,1,0,0,1-1.47-.29,1.36,1.36,0,0,1,.05-1.71Zm-.56,8.3a1,1,0,0,1,1.46.4,1.36,1.36,0,0,1-.06,1.74c-.42.36-1.08.16-1.46-.43a1.37,1.37,0,0,1,.06-1.71Zm-6.5-2.25c.35-.35.91-.21,1.24.33a1.35,1.35,0,0,1,0,1.6c-.37.34-.92.17-1.24-.36a1.34,1.34,0,0,1,.05-1.57Zm4.3-8.72a1.23,1.23,0,0,1,1,1.27c0,.66-.43,1.14-1,1.08a1.22,1.22,0,0,1-1-1.26,1,1,0,0,1,.94-1.09Zm4.69,6.68a1.46,1.46,0,0,1,1.11,1.43,1,1,0,0,1-1.08,1.07,1.46,1.46,0,0,1-1.07-1.43c0-.69.45-1.17,1-1.07Zm-5.08,4.74a1.47,1.47,0,0,1,1,1.42c0,.66-.43,1.09-1,.95a1.47,1.47,0,0,1-1-1.41c0-.65.4-1.08.93-1Zm-4.23-6.77a1.24,1.24,0,0,1,.87,1.26c0,.62-.38,1.06-.86,1a1.24,1.24,0,0,1-.85-1.25c0-.61.36-1.05.84-1Zm4.32-5.36a4.73,4.73,0,0,0-4.11,1.8,7.5,7.5,0,0,0-1.55,4.84,10.06,10.06,0,0,0,1.63,5.39,7.4,7.4,0,0,0,4.18,3.22,4.79,4.79,0,0,0,4.61-1.17,7.21,7.21,0,0,0,2-5.38,10,10,0,0,0-2.14-6A6.77,6.77,0,0,0,142.9,171.69Z"/><path class="cls-12" d="M238.38,301.17l4.17-.75c5.65-1,6.34-1.26,12-2.27.78,0,1.12,1.36.57,1.75L243,302.5l-3.64.7Z"/><path class="cls-12" d="M242.39,309.62l-.29.09-.3.06-.3.05-.31,0h-.34l.31,0,.3-.05.3-.06.29-.09.29-.1.27-.13.28-.14.26-.15.25-.18.25-.19.23-.21.23-.23.22-.25.2-.26.19-.28.18-.3.17-.31.15-.32.14-.33.12-.35.11-.36.09-.37.07-.38.06-.4,0-.4,0-.42V302.5l0-.21,0-.21,0-.21,0-.2,0-.21,0-.21,0-.2,0-.2-.06-.2-.05-.2-.06-.19-.07-.2-.07-.19-.07-.19-.07-.19-.08-.19-.08-.18-.09-.18-.09-.18-.09-.18-.1-.17-.09-.18-.1-.16-.11-.17-.11-.17-.11-.15-.11-.16-.12-.16-.12-.15-.23-.28-.25-.27-.26-.26-.26-.24-.28-.23-.28-.21-.28-.2-.3-.18-.29-.17-.31-.14-.3-.13-.31-.11-.32-.1-.31-.07-.32,0-.32,0h.34l.32,0,.32,0,.31.07.32.1.31.11.3.13.31.14.29.17.3.18.28.2.28.21.28.23.26.24.26.26.24.27.24.28.12.15.12.16.11.16.11.15.11.17.1.17.1.16.1.18.1.17.09.18.09.18.09.18.08.18.08.19.07.19.07.19.07.19.07.2.06.19.05.2.06.2,0,.2,0,.2,0,.21,0,.21,0,.2,0,.21,0,.21,0,.21v1.06l0,.42,0,.4-.06.4-.07.38-.09.37-.11.36-.12.35-.14.33-.15.32-.17.31-.18.3-.19.28-.2.26-.22.25-.23.23-.23.21-.25.19-.25.18-.26.15-.28.14-.27.13-.29.1ZM234.32,301l0-.22v-.22l.05-.2.08-.18.1-.14.12-.12.14-.08.16,0h-.34l-.16,0-.14.08-.12.12-.1.14-.08.18,0,.2,0,.22,0,.22.05.22.08.2.1.18.12.16.15.13.16.09.17,0h.34l-.17,0-.16-.09-.15-.13-.12-.16-.1-.18-.08-.2-.05-.22Zm4.68,5.58.18,0h-.34l-.18,0-.16.07-.14.11-.11.15-.08.18-.06.21v.23l0,.24,0,.23.09.22.12.21.14.18.16.14.18.12.19.07.19,0h.34l-.19,0-.19-.07-.18-.12-.16-.14-.14-.18-.12-.21-.09-.22,0-.23,0-.24v-.23l.05-.21.09-.18.11-.15.14-.11.16-.07Zm4.85-4.64.18-.08.2-.05h-.33l-.2.05-.18.08-.16.13-.12.16-.1.2-.06.22,0,.25,0,.25.06.24.1.23.13.21.16.18.18.15.2.11.22.06h.34l-.22-.06-.2-.11-.18-.15-.16-.18-.13-.21-.1-.23-.06-.24,0-.25,0-.25.06-.22.09-.2.13-.16.15-.13Zm-4.29-6.79h-.34l-.18.06-.16.09-.13.13-.12.17-.08.19-.05.21,0,.23,0,.24.06.22.09.21.11.19.14.16.17.12.18.09.19,0h.34l-.2,0-.17-.09-.17-.12-.14-.16-.11-.19-.09-.21-.06-.22,0-.24V296l.06-.21.08-.19.11-.17.14-.13.16-.09.18-.06Zm-4.37,9.65v-.22l0-.21.06-.19.08-.17.12-.15.14-.1.15-.06.17,0h-.34l-.16,0-.16.06-.14.1L235,304l-.08.17,0,.19,0,.21v.22l0,.22.07.21.11.21.13.18.15.15.15.1.17.08.17,0h.34l-.17,0-.17-.08-.16-.1-.14-.15-.13-.18-.11-.21-.07-.21,0-.22Zm6.93,1.21.19-.06.19,0h-.34l-.19,0-.18.06-.17.11-.14.15-.1.19-.06.2,0,.23,0,.23,0,.24.09.24.12.23.16.2.17.16.19.13.19.08.2,0h.34l-.2,0-.19-.08-.19-.13-.17-.16-.16-.2-.12-.23-.09-.24-.05-.24v-.23l0-.23.06-.2.1-.19.14-.15.16-.11Zm.57-8.32.18-.08.2,0h-.34l-.2,0-.18.08-.17.13-.13.17-.11.19-.06.21,0,.23v.23l0,.24.09.23.12.21.16.19.18.15.19.1.19.06.21,0h.33l-.2,0L243,300l-.19-.1-.18-.15-.16-.19-.12-.21-.09-.23-.05-.24v-.23l0-.23.06-.21.1-.19.14-.17.17-.13Zm-6.86-.42v-.22l0-.21.05-.2.09-.18.12-.15.14-.12.16-.08.16,0h-.34l-.16,0-.16.08-.14.12-.12.15-.09.18-.05.2,0,.21v.22l0,.21.07.21.1.2.14.17.15.13.16.1.17,0h.34l-.17,0-.17-.1-.14-.13-.14-.17-.1-.2-.08-.21Z"/><path class="cls-12" d="M235.77,296.31a.78.78,0,0,1,1.25.21,1.34,1.34,0,0,1-.05,1.61.8.8,0,0,1-1.26-.24,1.34,1.34,0,0,1,.06-1.58Zm6.41,1.51a1,1,0,0,1,1.48.26,1.36,1.36,0,0,1-.06,1.74,1,1,0,0,1-1.48-.29,1.37,1.37,0,0,1,.06-1.71Zm-.56,8.3a1,1,0,0,1,1.46.4,1.36,1.36,0,0,1-.06,1.74c-.43.36-1.08.16-1.46-.43a1.37,1.37,0,0,1,.06-1.71Zm-6.5-2.26c.35-.34.91-.2,1.24.34a1.35,1.35,0,0,1-.05,1.6c-.37.34-.92.17-1.24-.36a1.35,1.35,0,0,1,.05-1.58Zm4.3-8.71a1.24,1.24,0,0,1,1,1.27,1,1,0,0,1-1,1.08,1.24,1.24,0,0,1-1-1.27c0-.64.41-1.13.94-1.08Zm4.69,6.67a1.47,1.47,0,0,1,1.1,1.44c0,.7-.47,1.18-1.07,1.07a1.48,1.48,0,0,1-1.08-1.43c0-.69.46-1.17,1.05-1.08ZM239,306.57a1.47,1.47,0,0,1,1,1.41c0,.67-.43,1.09-1,1a1.45,1.45,0,0,1-1-1.41c0-.65.4-1.08.93-1Zm-4.24-6.77a1.24,1.24,0,0,1,.88,1.25c0,.63-.39,1.07-.86,1a1.23,1.23,0,0,1-.85-1.25c0-.61.36-1,.83-1Zm4.32-5.37a4.76,4.76,0,0,0-4.1,1.81,7.5,7.5,0,0,0-1.55,4.84,10.08,10.08,0,0,0,1.63,5.39,7.4,7.4,0,0,0,4.18,3.22,4.82,4.82,0,0,0,4.61-1.17,7.21,7.21,0,0,0,2-5.38,10,10,0,0,0-2.15-6A6.78,6.78,0,0,0,239.11,294.43Z"/><path class="cls-12" d="M142.16,82.54l4.17-.85c5.65-1.16,7.18-1.59,12.88-2.73.79-.07,1.12,1.34.57,1.74l-13,3.07-3.64.78Z"/><path class="cls-7" d="M146.17,91l-.29.08-.3.07-.3,0-.31,0h-.34l.31,0,.3,0,.3-.07.29-.08.29-.11.28-.12.27-.14.26-.16.25-.17.25-.19.23-.21.23-.24.22-.24.2-.27.19-.28.18-.29.17-.31.15-.32.14-.33.12-.35.11-.36.09-.37.07-.39.06-.39,0-.41,0-.41V83.87l0-.21,0-.21,0-.21,0-.21,0-.2,0-.21,0-.2,0-.2-.06-.2-.05-.2-.06-.2-.07-.19-.06-.19-.08-.19-.07-.19-.08-.19-.08-.18-.09-.19-.09-.17-.09-.18-.09-.18-.1-.17-.1-.17-.11-.16L148,79.1l-.11-.16-.11-.16-.12-.15-.11-.15-.24-.29-.25-.27-.26-.25-.26-.25-.28-.22L146,77l-.28-.19-.29-.19-.3-.16-.31-.15-.3-.13-.31-.11-.31-.09-.32-.07-.32-.06-.31,0h.33l.32,0,.32.06.32.07.31.09.31.11.3.13.31.15.29.16.3.19.28.19.28.22.28.22.26.25.26.25.25.27.23.29.12.15.12.15.11.16.11.16.11.17.1.16.11.17.09.17.1.18.09.18.09.17.09.19.08.18.08.19.07.19.07.19.07.19.07.19.06.2,0,.2.05.2.05.2,0,.2,0,.21,0,.2,0,.21,0,.21,0,.21,0,.21v1.06l0,.41,0,.41-.06.39-.07.39-.09.37-.11.36-.12.35-.14.33-.15.32-.17.31-.18.29-.19.28-.21.27-.21.24-.23.24-.23.21-.25.19-.25.17-.26.16-.27.14-.28.12-.29.11Zm-8.07-8.62,0-.22,0-.22,0-.2.08-.18.1-.15.12-.11.15-.08.15,0h-.34l-.15,0-.15.08-.12.11-.1.15-.08.18,0,.2,0,.22,0,.22.05.22.08.2.1.18.13.16.14.12.16.1.17.05h.34l-.17-.05-.16-.1-.14-.12-.13-.16-.1-.18-.08-.2-.05-.22ZM142.78,88l.18,0h-.34l-.18,0-.16.07-.14.11-.11.15-.08.18-.06.2v.24l0,.24,0,.23.09.22.12.2.14.18.16.15.18.12.19.07.19,0h.34l-.19,0-.19-.07-.18-.12-.16-.15-.14-.18-.12-.2-.09-.22,0-.23,0-.24v-.24l.06-.2.08-.18.11-.15.14-.11.16-.07Zm4.86-4.64.18-.09.2,0h-.34l-.2,0-.18.09-.16.13-.12.16-.1.19-.06.23v.24l0,.26.06.24.1.23.13.21.16.18.19.14.2.11.21.07h.34l-.21-.07-.21-.11-.18-.14-.16-.18-.13-.21-.1-.23-.06-.24,0-.26V84l.06-.23.09-.19.13-.16.16-.13Zm-4.3-6.79H143l-.17.06-.16.09-.14.13-.12.16-.08.19-.05.22,0,.23,0,.24.06.22.09.21.11.18.15.16.16.13.18.09.19,0h.34l-.19,0-.18-.09-.17-.13-.14-.16-.11-.18-.09-.21-.06-.22,0-.24,0-.23,0-.22.08-.19.12-.16.14-.13.16-.09.17-.06ZM139,86.16V86l0-.21,0-.19.08-.17.12-.15.14-.1.16-.07.16,0h-.34l-.16,0-.16.07-.14.1-.11.15-.09.17,0,.19,0,.21v.21l0,.22.08.22.1.21L139,87l.15.14.16.11.16.07.17,0H140l-.17,0-.17-.07-.15-.11-.15-.14-.13-.18-.11-.21-.07-.22,0-.22Zm6.94,1.22.18-.07h-.34l-.18.07-.17.11-.13.15-.1.18-.07.21,0,.23v.23l0,.24.09.24.12.23.16.2.17.16.19.12.2.09.19,0h.34l-.19,0-.2-.09-.19-.12-.17-.16-.16-.2-.12-.23-.09-.24,0-.24v-.23l0-.23.06-.21.1-.18.14-.15.17-.11Zm.56-8.32.18-.08.2,0h-.34l-.2,0-.18.08-.17.13-.13.16-.11.2-.06.21,0,.23,0,.23,0,.24.09.22.13.22.15.19.18.14.19.11.2.06.2,0h.34l-.21,0-.19-.06-.19-.11-.18-.14-.15-.19-.13-.22-.09-.22,0-.24,0-.23,0-.23.06-.21.11-.2.13-.16.17-.13Zm-6.86-.42v-.22l0-.21.06-.2.08-.18.12-.15.14-.12.16-.08.16,0H140l-.16,0-.16.08-.14.12-.12.15-.08.18-.06.2,0,.21v.22l0,.21.07.21.11.2.13.17.15.13.16.09.17,0,.17,0h.34l-.17,0-.17,0-.16-.09-.15-.13-.13-.17-.11-.2-.07-.21Z"/><path class="cls-12" d="M139.55,77.68a.78.78,0,0,1,1.26.21,1.36,1.36,0,0,1-.06,1.61.79.79,0,0,1-1.25-.24,1.33,1.33,0,0,1,.05-1.58ZM146,79.19a1,1,0,0,1,1.48.25,1.38,1.38,0,0,1-.06,1.75,1,1,0,0,1-1.47-.29,1.36,1.36,0,0,1,.05-1.71Zm-.56,8.3a1,1,0,0,1,1.46.4,1.36,1.36,0,0,1-.06,1.74c-.42.36-1.08.15-1.46-.43a1.37,1.37,0,0,1,.06-1.71Zm-6.5-2.26c.35-.34.91-.2,1.24.33a1.35,1.35,0,0,1,0,1.6c-.37.34-.92.18-1.24-.35a1.35,1.35,0,0,1,.05-1.58Zm4.3-8.72a1.24,1.24,0,0,1,1,1.27c0,.66-.43,1.15-1,1.09a1.24,1.24,0,0,1-1-1.27,1,1,0,0,1,.94-1.09Zm4.69,6.68A1.46,1.46,0,0,1,149,84.63a1,1,0,0,1-1.08,1.07,1.46,1.46,0,0,1-1.07-1.44c0-.68.45-1.16,1-1.07Zm-5.08,4.75a1.46,1.46,0,0,1,1,1.41c0,.66-.43,1.09-1,1a1.49,1.49,0,0,1-1-1.41c0-.65.4-1.08.93-1Zm-4.23-6.77a1.24,1.24,0,0,1,.87,1.25c0,.62-.38,1.06-.86,1a1.24,1.24,0,0,1-.85-1.25c0-.61.36-1.05.84-1Zm4.32-5.37a4.74,4.74,0,0,0-4.11,1.81,7.49,7.49,0,0,0-1.55,4.83,10.09,10.09,0,0,0,1.63,5.4,7.34,7.34,0,0,0,4.18,3.21,4.79,4.79,0,0,0,4.61-1.16,7.23,7.23,0,0,0,2-5.38,10,10,0,0,0-2.14-6A6.78,6.78,0,0,0,142.9,75.8Z"/></g></g></g></svg>