<svg xmlns="http://www.w3.org/2000/svg" viewBox="0 0 290.86 185.76"><defs><style>.cls-1{fill:#dddad4;}.cls-2{fill:#f2ecd4;}.cls-3{fill:#fff;}.cls-4{fill:#edeae4;}.cls-5{fill:#e2dac0;}.cls-32,.cls-6{fill:#d1c9b0;}.cls-7{fill:#d1c7a7;}.cls-8{opacity:0.25;}.cls-12,.cls-17,.cls-20,.cls-23,.cls-29,.cls-9{fill:none;stroke-miterlimit:10;}.cls-9{stroke:#968d76;}.cls-10{fill:#e2e0dc;}.cls-11{fill:#ccc9c1;}.cls-12{stroke:#78c7c8;stroke-width:2px;}.cls-13{fill:#bfb392;}.cls-14{fill:#c1baa9;}.cls-15{fill:#65b8b8;}.cls-16{fill:#2d555b;}.cls-17{stroke:#fff;}.cls-18{fill:#4d9694;}.cls-19{fill:#78c7c8;}.cls-20{stroke:#3e5251;}.cls-21,.cls-26{fill:#76a9ab;}.cls-21,.cls-24{opacity:0.57;}.cls-22{fill:#26494a;}.cls-23{stroke:#2d555b;}.cls-25{fill:#34b24a;}.cls-27{fill:#bdb294;}.cls-28{fill:#afa58b;}.cls-29{stroke:#e0dcd1;}.cls-30{fill:#589f9f;}.cls-31{fill:#6bb2b2;}.cls-32{opacity:0.54;}.cls-33{fill:#3e5251;}.cls-34{fill:#e8e4da;}</style></defs><title></title><g id="Шар_2" data-name="Шар 2"><g id="Шар_1-2" data-name="Шар 1"><ellipse class="cls-1" cx="108.66" cy="176.76" rx="108.66" ry="9"/><polygon class="cls-2" points="140.2 8.76 90.36 8.34 39.76 66.22 35.07 71.59 35.07 164.99 198.42 164.99 197.59 71.59 140.2 8.76"/><polygon class="cls-3" points="42.08 70.37 51.79 70.38 52.25 70.38 187.39 70.54 193.4 78.08 34.25 78.53 42.08 70.37"/><polygon class="cls-4" points="37.16 78.5 41.77 73.47 190.05 73.89 193.4 78.08 37.16 78.5"/><rect class="cls-5" x="21.67" y="84.99" width="184.3" height="88.8" rx="1.25"/><polyline class="cls-6" points="21.33 83.12 21.75 104.95 106.75 8.29 90.75 7.29 34.25 70.28"/><rect class="cls-5" x="107.95" y="77.45" width="14.66" height="61.08"/><polygon class="cls-5" points="108.62 83.55 142.96 83.55 158.32 83.55 158.32 92.2 158.32 131.85 151.41 132.76 151.34 91.09 108.79 91.19 108.62 83.55"/><rect class="cls-7" x="33.12" y="136.58" width="165.03" height="36.58"/><g class="cls-8"><path class="cls-9" d="M88.56,15.35c1.84,1.56,4.39,1.6,5.7.06s.86-4-1-5.61l-.14-.11-4.71,5.53Z"/><path class="cls-9" d="M88.56,15.35c1.84,1.56,4.39,1.6,5.7.06s.86-4-1-5.61l-.14-.11-4.71,5.53Z"/><path class="cls-9" d="M84,20.68c1.84,1.57,4.39,1.6,5.69.07s.87-4-1-5.61L88.58,15l-4.71,5.53Z"/><path class="cls-9" d="M84,20.68c1.84,1.57,4.39,1.6,5.69.07s.87-4-1-5.61L88.58,15l-4.71,5.53Z"/><path class="cls-9" d="M79.46,26c1.84,1.57,4.39,1.6,5.69.07s.87-4-1-5.61L84,20.37,79.32,25.9Z"/><path class="cls-9" d="M79.46,26c1.84,1.57,4.39,1.6,5.69.07s.87-4-1-5.61L84,20.37,79.32,25.9Z"/><path class="cls-9" d="M74.9,31.36c1.84,1.57,4.39,1.6,5.7.07s.86-4-1-5.61l-.14-.12-4.71,5.54Z"/><path class="cls-9" d="M74.9,31.36c1.84,1.57,4.39,1.6,5.7.07s.86-4-1-5.61l-.14-.12-4.71,5.54Z"/><path class="cls-9" d="M70.35,36.7c1.84,1.57,4.39,1.6,5.69.07s.87-4.05-1-5.62L74.93,31l-4.71,5.53Z"/><path class="cls-9" d="M70.35,36.7c1.84,1.57,4.39,1.6,5.69.07s.87-4.05-1-5.62L74.93,31l-4.71,5.53Z"/><path class="cls-9" d="M65.8,42c1.84,1.56,4.39,1.6,5.69.06s.87-4-1-5.61l-.15-.11-4.71,5.53Z"/><path class="cls-9" d="M65.8,42c1.84,1.56,4.39,1.6,5.69.06s.87-4-1-5.61l-.15-.11-4.71,5.53Z"/><path class="cls-9" d="M61.24,47.37c1.85,1.57,4.4,1.6,5.7.07s.87-4-1-5.61l-.14-.11-4.71,5.53Z"/><path class="cls-9" d="M61.24,47.37c1.85,1.57,4.4,1.6,5.7.07s.87-4-1-5.61l-.14-.11-4.71,5.53Z"/><path class="cls-9" d="M56.69,52.71c1.84,1.57,4.39,1.6,5.7.07s.86-4-1-5.61l-.14-.11-4.71,5.53Z"/><path class="cls-9" d="M56.69,52.71c1.84,1.57,4.39,1.6,5.7.07s.86-4-1-5.61l-.14-.11-4.71,5.53Z"/><path class="cls-9" d="M52.14,58.05c1.84,1.57,4.39,1.6,5.69.07s.87-4-1-5.61l-.15-.12L52,57.93Z"/><path class="cls-9" d="M52.14,58.05c1.84,1.57,4.39,1.6,5.69.07s.87-4-1-5.61l-.15-.12L52,57.93Z"/><path class="cls-9" d="M47.58,63.39c1.85,1.57,4.4,1.6,5.7.07s.87-4.05-1-5.62l-.14-.11-4.71,5.53Z"/><path class="cls-9" d="M47.58,63.39c1.85,1.57,4.4,1.6,5.7.07s.87-4.05-1-5.62l-.14-.11-4.71,5.53Z"/><path class="cls-9" d="M43,68.73c1.84,1.56,4.39,1.59,5.7.06s.86-4-1-5.61l-.14-.11L42.9,68.6A1.59,1.59,0,0,0,43,68.73Z"/><path class="cls-9" d="M43,68.73c1.84,1.56,4.39,1.59,5.7.06s.86-4-1-5.61l-.14-.11L42.9,68.6A1.59,1.59,0,0,0,43,68.73Z"/><path class="cls-9" d="M38.48,74.06c1.84,1.57,4.39,1.6,5.69.07s.87-4-1-5.61l-.14-.11-4.72,5.53Z"/><path class="cls-9" d="M38.48,74.06c1.84,1.57,4.39,1.6,5.69.07s.87-4-1-5.61l-.14-.11-4.72,5.53Z"/><path class="cls-9" d="M33.93,79.4c1.84,1.57,4.39,1.6,5.69.07s.87-4-1-5.61l-.15-.12-4.71,5.54Z"/><path class="cls-9" d="M33.93,79.4c1.84,1.57,4.39,1.6,5.69.07s.87-4-1-5.61l-.15-.12-4.71,5.54Z"/><path class="cls-9" d="M29.37,84.74c1.85,1.57,4.4,1.6,5.7.07s.87-4-1-5.61L34,79.08l-4.71,5.53Z"/></g><polygon class="cls-10" points="52.08 70.41 41.54 70.33 37.75 74.74 47.67 74.87 52.08 70.41"/><polygon class="cls-11" points="48.88 73.53 45 78.45 35.13 78.49 39.71 73.28 48.88 73.53"/><polygon class="cls-5" points="57.83 64.33 80.86 37.94 80.86 43.52 62.85 64.47 57.83 64.33"/><path class="cls-12" d="M58.81,63.31c4.48-4.89,22.06-25.37,22.06-25.37V64.33H59.26A.61.61,0,0,1,58.81,63.31Z"/><path class="cls-12" d="M169.38,64.33c-1.11-.84-23-26.39-23-26.39V64.33Z"/><rect class="cls-12" x="39.12" y="93.16" width="13.19" height="34.56"/><rect class="cls-3" x="20.76" y="136.3" width="99.97" height="2.09"/><rect class="cls-13" x="33.39" y="164.78" width="86.91" height="9.42"/><rect class="cls-13" x="179.78" y="164.99" width="18.43" height="8.8"/><rect class="cls-5" x="129.94" y="135.88" width="37.91" height="9.23"/><rect class="cls-14" x="129.94" y="144.88" width="37.91" height="9.23"/><rect class="cls-5" x="129.94" y="153.88" width="37.91" height="9.23"/><rect class="cls-14" x="129.94" y="162.88" width="37.91" height="10.9"/><path class="cls-15" d="M161.84,111.63c0,.55,0,23.73-.12,24.25,0,.1,0,.28-.06.28-5.75,0-20.55-.28-24.91-.28-.41,0-.06-23.86-.06-24.25,0-6.27,5.63-11.35,12.58-11.35S161.84,105.36,161.84,111.63Z"/><path class="cls-16" d="M158,114.65c0-1.67,0-2.83,0-2.93,0-4.34-3.9-7.86-8.7-7.86s-8.71,3.52-8.71,7.86c0,.07,0,1.24,0,2.93Z"/><rect class="cls-17" x="140.68" y="124.15" width="17.32" height="9.48"/><rect class="cls-18" x="157.66" y="117.45" width="2.37" height="4.89"/><rect class="cls-19" x="120.31" y="135.46" width="11.94" height="38.74"/><rect class="cls-12" x="181.11" y="93.51" width="11.17" height="36.86"/><rect class="cls-3" x="179.65" y="136.65" width="18.92" height="2.09"/><path class="cls-20" d="M86.71,14.7c1.85,1.57,4.4,1.6,5.7.07s.87-4-1-5.61l-.14-.11-4.71,5.53Z"/><path class="cls-20" d="M86.71,14.7c1.85,1.57,4.4,1.6,5.7.07s.87-4-1-5.61l-.14-.11-4.71,5.53Z"/><path class="cls-20" d="M82.16,20c1.84,1.57,4.39,1.6,5.7.07s.86-4-1-5.61l-.14-.12L82,19.92Z"/><path class="cls-20" d="M82.16,20c1.84,1.57,4.39,1.6,5.7.07s.86-4-1-5.61l-.14-.12L82,19.92Z"/><path class="cls-20" d="M77.61,25.38C79.45,27,82,27,83.3,25.45s.87-4.05-1-5.62l-.15-.11-4.71,5.53Z"/><path class="cls-20" d="M77.61,25.38C79.45,27,82,27,83.3,25.45s.87-4.05-1-5.62l-.15-.11-4.71,5.53Z"/><path class="cls-20" d="M73.05,30.72c1.85,1.56,4.4,1.6,5.7.06s.87-4-1-5.61l-.14-.11-4.71,5.53Z"/><path class="cls-20" d="M73.05,30.72c1.85,1.56,4.4,1.6,5.7.06s.87-4-1-5.61l-.14-.11-4.71,5.53Z"/><path class="cls-20" d="M68.5,36.05c1.84,1.57,4.39,1.6,5.7.07s.86-4-1-5.61l-.14-.11-4.71,5.53Z"/><path class="cls-20" d="M68.5,36.05c1.84,1.57,4.39,1.6,5.7.07s.86-4-1-5.61l-.14-.11-4.71,5.53Z"/><path class="cls-20" d="M64,41.39c1.84,1.57,4.39,1.6,5.69.07s.87-4-1-5.61l-.15-.11-4.71,5.53Z"/><path class="cls-20" d="M64,41.39c1.84,1.57,4.39,1.6,5.69.07s.87-4-1-5.61l-.15-.11-4.71,5.53Z"/><path class="cls-20" d="M59.4,46.73c1.84,1.57,4.39,1.6,5.69.07s.87-4-1-5.61L64,41.07l-4.71,5.54Z"/><path class="cls-20" d="M59.4,46.73c1.84,1.57,4.39,1.6,5.69.07s.87-4-1-5.61L64,41.07l-4.71,5.54Z"/><path class="cls-20" d="M54.84,52.07c1.84,1.57,4.39,1.6,5.7.07s.87-4-1-5.62l-.14-.11-4.71,5.53Z"/><path class="cls-20" d="M54.84,52.07c1.84,1.57,4.39,1.6,5.7.07s.87-4-1-5.62l-.14-.11-4.71,5.53Z"/><path class="cls-20" d="M50.29,57.41C52.13,59,54.68,59,56,57.47s.86-4-1-5.61l-.14-.11-4.71,5.53Z"/><path class="cls-20" d="M50.29,57.41C52.13,59,54.68,59,56,57.47s.86-4-1-5.61l-.14-.11-4.71,5.53Z"/><path class="cls-20" d="M45.74,62.74c1.84,1.57,4.39,1.6,5.69.07s.87-4-1-5.61l-.15-.11L45.6,62.62Z"/><path class="cls-20" d="M45.74,62.74c1.84,1.57,4.39,1.6,5.69.07s.87-4-1-5.61l-.15-.11L45.6,62.62Z"/><path class="cls-20" d="M41.18,68.08c1.85,1.57,4.4,1.6,5.7.07s.87-4-1-5.61l-.14-.11L41.05,68Z"/><path class="cls-20" d="M41.18,68.08c1.85,1.57,4.4,1.6,5.7.07s.87-4-1-5.61l-.14-.11L41.05,68Z"/><path class="cls-20" d="M36.63,73.42c1.84,1.57,4.39,1.6,5.7.07s.86-4-1-5.61l-.14-.12L36.5,73.29A.8.8,0,0,0,36.63,73.42Z"/><path class="cls-20" d="M36.63,73.42c1.84,1.57,4.39,1.6,5.7.07s.86-4-1-5.61l-.14-.12L36.5,73.29A.8.8,0,0,0,36.63,73.42Z"/><path class="cls-20" d="M32.08,78.76c1.84,1.57,4.39,1.6,5.69.07s.87-4-1-5.62l-.15-.11-4.71,5.53Z"/><path class="cls-20" d="M32.08,78.76c1.84,1.57,4.39,1.6,5.69.07s.87-4-1-5.62l-.15-.11-4.71,5.53Z"/><path class="cls-20" d="M27.53,84.09c1.84,1.57,4.39,1.6,5.69.07s.87-4-1-5.61l-.15-.11L27.39,84Z"/><polygon class="cls-21" points="111.28 53.71 124.03 35.7 124.02 38.07 113.08 53.71 111.28 53.71"/><rect class="cls-19" x="88.96" y="27.82" width="49.29" height="42.23"/><rect class="cls-16" x="91.45" y="34.99" width="9.71" height="23.54"/><rect class="cls-16" x="125.69" y="35.11" width="9.71" height="23.54"/><rect class="cls-16" x="104.26" y="34.99" width="19.3" height="23.06"/><rect class="cls-22" x="91.48" y="35.05" width="3.21" height="23.14"/><rect class="cls-22" x="91.45" y="34.99" width="9.71" height="3.13"/><rect class="cls-19" x="90.36" y="41.24" width="45.93" height="1.59"/><rect class="cls-23" x="91.7" y="61.9" width="8.4" height="5.82"/><rect class="cls-23" x="126.94" y="61.84" width="8.4" height="5.82"/><rect class="cls-23" x="105.02" y="61.9" width="17.93" height="5.82"/><rect class="cls-22" x="104.26" y="35.03" width="19.26" height="3.17"/><rect class="cls-22" x="125.67" y="34.8" width="9.78" height="3.17"/><rect class="cls-16" x="88.96" y="30.3" width="49.32" height="1.29"/><g class="cls-24"><polygon class="cls-25" points="125.64 58.66 125.72 58.66 125.72 58.57 125.64 58.66"/></g><g class="cls-24"><polygon class="cls-26" points="135.44 44.93 135.45 42.84 125.7 54.94 125.7 57.17 135.44 44.93"/><polygon class="cls-26" points="135.47 51.43 135.42 46.62 125.7 58.59 125.7 58.68 129.04 58.68 135.47 51.43"/><polygon class="cls-25" points="125.62 58.68 125.7 58.68 125.7 58.59 125.62 58.68"/></g><g class="cls-24"><polygon class="cls-26" points="101.2 44.84 101.21 42.75 91.46 54.85 91.46 57.07 101.2 44.84"/><polygon class="cls-26" points="101.23 51.34 101.18 46.52 91.46 58.49 91.46 58.59 94.8 58.59 101.23 51.34"/><polygon class="cls-25" points="91.38 58.59 91.46 58.59 91.46 58.49 91.38 58.59"/></g><g class="cls-24"><polygon class="cls-26" points="123.57 44.89 123.58 42.8 111.29 58.08 113.08 58.03 123.57 44.89"/><polygon class="cls-26" points="123.6 51.39 123.55 46.57 114.23 58.08 114.23 58.08 117.67 58.05 123.6 51.39"/><polygon class="cls-25" points="113.75 58.64 113.82 58.64 113.82 58.55 113.75 58.64"/></g><rect class="cls-19" x="61.32" y="86.46" width="49.29" height="42.23"/><rect class="cls-16" x="63.81" y="93.63" width="9.71" height="23.54"/><rect class="cls-16" x="98.05" y="93.75" width="9.71" height="23.54"/><rect class="cls-16" x="76.61" y="93.63" width="19.3" height="23.06"/><rect class="cls-22" x="63.83" y="93.69" width="3.21" height="23.14"/><rect class="cls-22" x="63.81" y="93.63" width="9.71" height="3.13"/><rect class="cls-19" x="62.71" y="99.88" width="45.93" height="1.59"/><rect class="cls-23" x="64.06" y="120.54" width="8.4" height="5.82"/><rect class="cls-23" x="99.29" y="120.48" width="8.4" height="5.82"/><rect class="cls-23" x="77.38" y="120.54" width="17.93" height="5.82"/><rect class="cls-22" x="76.61" y="93.67" width="19.26" height="3.17"/><rect class="cls-22" x="98.03" y="93.44" width="9.72" height="3.17"/><rect class="cls-16" x="61.32" y="88.94" width="49.32" height="1.29"/><g class="cls-24"><polygon class="cls-26" points="107.82 103.55 107.83 101.47 98.07 113.57 98.07 115.79 107.82 103.55"/><polygon class="cls-26" points="107.85 110.06 107.8 105.24 98.07 117.21 98.07 117.3 101.42 117.31 107.85 110.06"/><polygon class="cls-25" points="98 117.3 98.07 117.3 98.07 117.21 98 117.3"/></g><g class="cls-24"><polygon class="cls-26" points="73.58 103.46 73.59 101.38 63.83 113.48 63.83 115.7 73.58 103.46"/><polygon class="cls-26" points="73.61 109.96 73.56 105.15 63.83 117.12 63.83 117.21 67.17 117.22 73.61 109.96"/><polygon class="cls-25" points="63.76 117.21 63.83 117.21 63.83 117.12 63.76 117.21"/></g><g class="cls-24"><polygon class="cls-26" points="95.94 103.51 95.95 101.43 83.67 116.7 85.46 116.66 95.94 103.51"/><polygon class="cls-26" points="95.97 110.01 95.92 105.2 86.6 116.7 86.6 116.7 90.04 116.68 95.97 110.01"/><polygon class="cls-25" points="86.12 117.26 86.2 117.26 86.2 117.17 86.12 117.26"/></g><rect class="cls-27" x="107.81" y="138.34" width="12.5" height="26.44"/><rect class="cls-28" x="107.53" y="164.78" width="12.71" height="9.15"/><polyline class="cls-29" points="107.88 141.53 116.12 141.53 116.12 159.75 107.88 159.75"/><rect class="cls-17" x="182.09" y="143.91" width="11.73" height="16.48"/><rect class="cls-17" x="37.58" y="141.53" width="15.5" height="18.22"/><rect class="cls-17" x="58.74" y="141.53" width="15.5" height="18.22"/><rect class="cls-17" x="79.68" y="141.53" width="15.5" height="18.22"/><polyline class="cls-17" points="107.95 141.53 99.71 141.53 99.71 159.75 107.95 159.75"/><rect class="cls-27" x="20.74" y="138.36" width="12.66" height="26.42"/><rect class="cls-28" x="20.82" y="164.69" width="12.61" height="9.68"/><rect class="cls-19" x="117.51" y="77.24" width="64.92" height="11.03" rx="2"/><rect class="cls-19" x="121.63" y="91.69" width="6.42" height="40.07"/><rect class="cls-30" x="120.38" y="87.5" width="9.08" height="5.31"/><rect class="cls-19" x="172.04" y="91.83" width="6.42" height="40.07" transform="translate(350.49 223.73) rotate(180)"/><rect class="cls-30" x="170.64" y="87.64" width="9.08" height="5.31" transform="translate(350.35 180.59) rotate(180)"/><rect class="cls-23" x="120.31" y="79.54" width="58.99" height="5.65"/><rect class="cls-19" x="167.85" y="135.88" width="11.94" height="38.12"/><rect class="cls-30" x="121.14" y="130.92" width="8.31" height="4.62"/><rect class="cls-30" x="170.64" y="131.06" width="8.31" height="4.89" transform="translate(349.59 267.01) rotate(180)"/><rect class="cls-31" x="128.59" y="135.48" width="3.65" height="38.72"/><rect class="cls-31" x="167.85" y="135.9" width="3.65" height="37.83"/><polyline class="cls-6" points="95.83 17.45 142.75 17.54 137 9.66 95.38 10.16 95.63 15.79 96.5 17.12"/><path class="cls-20" d="M96.05,9.53c0,2.44,1.58,4.4,3.47,4.38s3.39-2,3.36-4.46a1.28,1.28,0,0,1,0-.19l-6.81.09A1.09,1.09,0,0,0,96.05,9.53Z"/><path class="cls-20" d="M102.92,9.36c0,2.44,1.58,4.4,3.47,4.38s3.39-2,3.36-4.46a1.28,1.28,0,0,1,0-.19l-6.81.09A1.09,1.09,0,0,0,102.92,9.36Z"/><path class="cls-20" d="M109.68,9.3c0,2.44,1.58,4.4,3.47,4.38s3.38-2,3.35-4.47a1.09,1.09,0,0,0,0-.18l-6.81.08Z"/><path class="cls-20" d="M116.35,9.2c0,2.44,1.59,4.4,3.47,4.38s3.39-2,3.36-4.46c0-.06,0-.12,0-.19L116.36,9C116.36,9.08,116.35,9.14,116.35,9.2Z"/><path class="cls-20" d="M123.17,9.53c0,2.44,1.58,4.4,3.47,4.38s3.38-2,3.36-4.47a1.09,1.09,0,0,1,0-.18l-6.82.08Z"/><polyline class="cls-32" points="207.67 81.12 207.25 102.95 132.38 17.29 138.25 5.29 194.75 68.28"/><g class="cls-8"><path class="cls-9" d="M139.12,12.25c-2.41,2.05-5.47,2.41-6.83.81s-.52-4.57,1.89-6.62l.19-.15,4.93,5.79Z"/><path class="cls-9" d="M139.12,12.25c-2.41,2.05-5.47,2.41-6.83.81s-.52-4.57,1.89-6.62l.19-.15,4.93,5.79Z"/><path class="cls-9" d="M143.89,17.83c-2.41,2.05-5.47,2.42-6.83.81S136.54,14.08,139,12l.19-.15,4.93,5.79Z"/><path class="cls-9" d="M143.89,17.83c-2.41,2.05-5.47,2.42-6.83.81S136.54,14.08,139,12l.19-.15,4.93,5.79Z"/><path class="cls-9" d="M148.66,23.42c-2.41,2-5.47,2.41-6.84.81s-.51-4.56,1.9-6.62l.18-.14,4.93,5.79Z"/><path class="cls-9" d="M148.66,23.42c-2.41,2-5.47,2.41-6.84.81s-.51-4.56,1.9-6.62l.18-.14,4.93,5.79Z"/><path class="cls-9" d="M153.42,29c-2.41,2.05-5.47,2.42-6.83.82s-.52-4.57,1.89-6.62l.19-.15,4.93,5.79Z"/><path class="cls-9" d="M153.42,29c-2.41,2.05-5.47,2.42-6.83.82s-.52-4.57,1.89-6.62l.19-.15,4.93,5.79Z"/><path class="cls-9" d="M158.19,34.59c-2.41,2-5.47,2.41-6.83.81s-.52-4.56,1.89-6.61l.18-.15,4.93,5.79Z"/><path class="cls-9" d="M158.19,34.59c-2.41,2-5.47,2.41-6.83.81s-.52-4.56,1.89-6.61l.18-.15,4.93,5.79Z"/><path class="cls-9" d="M163,40.17c-2.41,2-5.46,2.42-6.83.82s-.52-4.57,1.89-6.62l.19-.15L163.13,40A1.37,1.37,0,0,1,163,40.17Z"/><path class="cls-9" d="M163,40.17c-2.41,2-5.46,2.42-6.83.82s-.52-4.57,1.89-6.62l.19-.15L163.13,40A1.37,1.37,0,0,1,163,40.17Z"/><path class="cls-9" d="M167.72,45.76c-2.41,2.05-5.47,2.41-6.83.81S160.37,42,162.78,40l.19-.15,4.93,5.79Z"/><path class="cls-9" d="M167.72,45.76c-2.41,2.05-5.47,2.41-6.83.81S160.37,42,162.78,40l.19-.15,4.93,5.79Z"/><path class="cls-9" d="M172.49,51.34c-2.41,2.06-5.47,2.42-6.84.82s-.51-4.57,1.9-6.62l.18-.15,4.93,5.79Z"/><path class="cls-9" d="M172.49,51.34c-2.41,2.06-5.47,2.42-6.84.82s-.51-4.57,1.9-6.62l.18-.15,4.93,5.79Z"/><path class="cls-9" d="M177.25,56.93c-2.41,2-5.47,2.42-6.83.81s-.52-4.56,1.89-6.61l.19-.15,4.93,5.79Z"/><path class="cls-9" d="M177.25,56.93c-2.41,2-5.47,2.42-6.83.81s-.52-4.56,1.89-6.61l.19-.15,4.93,5.79Z"/><path class="cls-9" d="M182,62.52c-2.41,2-5.47,2.41-6.83.81s-.52-4.56,1.89-6.62l.19-.14,4.93,5.79Z"/><path class="cls-9" d="M182,62.52c-2.41,2-5.47,2.41-6.83.81s-.52-4.56,1.89-6.62l.19-.14,4.93,5.79Z"/><path class="cls-9" d="M186.79,68.1c-2.41,2.05-5.47,2.42-6.84.82s-.51-4.57,1.89-6.62l.19-.15L187,67.94Z"/><path class="cls-9" d="M186.79,68.1c-2.41,2.05-5.47,2.42-6.84.82s-.51-4.57,1.89-6.62l.19-.15L187,67.94Z"/><path class="cls-9" d="M191.55,73.69c-2.41,2-5.47,2.41-6.83.81s-.52-4.56,1.89-6.61c.06-.06.13-.1.19-.15l4.93,5.79Z"/><path class="cls-9" d="M191.55,73.69c-2.41,2-5.47,2.41-6.83.81s-.52-4.56,1.89-6.61c.06-.06.13-.1.19-.15l4.93,5.79Z"/><path class="cls-9" d="M196.32,79.27c-2.41,2-5.47,2.42-6.83.82s-.52-4.57,1.89-6.62l.18-.15,4.93,5.79Z"/><path class="cls-9" d="M196.32,79.27c-2.41,2-5.47,2.42-6.83.82s-.52-4.57,1.89-6.62l.18-.15,4.93,5.79Z"/><path class="cls-9" d="M201.08,84.86c-2.41,2-5.46,2.41-6.83.81s-.52-4.56,1.89-6.61l.19-.15,4.93,5.79C201.2,84.75,201.15,84.81,201.08,84.86Z"/></g><polygon class="cls-10" points="178.17 70.2 188.71 70.12 193.75 73.08 181.13 73.58 178.17 70.2"/><polygon class="cls-11" points="181.13 73.56 184.67 77.45 195.75 77.45 193.71 73.06 181.13 73.56"/><path class="cls-20" d="M140.43,12.6c-1.84,1.57-4.39,1.6-5.69.07s-.87-4.05,1-5.62l.15-.11,4.71,5.53Z"/><path class="cls-20" d="M140.43,12.6c-1.84,1.57-4.39,1.6-5.69.07s-.87-4.05,1-5.62l.15-.11,4.71,5.53Z"/><path class="cls-20" d="M145,17.94c-1.84,1.56-4.39,1.6-5.7.06s-.87-4,1-5.61l.14-.11,4.71,5.53Z"/><path class="cls-20" d="M145,17.94c-1.84,1.56-4.39,1.6-5.7.06s-.87-4,1-5.61l.14-.11,4.71,5.53Z"/><path class="cls-20" d="M149.54,23.27c-1.84,1.57-4.39,1.6-5.7.07s-.86-4,1-5.61l.14-.11,4.71,5.53Z"/><path class="cls-20" d="M149.54,23.27c-1.84,1.57-4.39,1.6-5.7.07s-.86-4,1-5.61l.14-.11,4.71,5.53Z"/><path class="cls-20" d="M154.09,28.61c-1.84,1.57-4.39,1.6-5.69.07s-.87-4,1-5.61l.15-.11,4.71,5.53Z"/><path class="cls-20" d="M154.09,28.61c-1.84,1.57-4.39,1.6-5.69.07s-.87-4,1-5.61l.15-.11,4.71,5.53Z"/><path class="cls-20" d="M158.65,34c-1.85,1.57-4.4,1.6-5.7.07s-.87-4.05,1-5.61l.14-.12,4.71,5.54Z"/><path class="cls-20" d="M158.65,34c-1.85,1.57-4.4,1.6-5.7.07s-.87-4.05,1-5.61l.14-.12,4.71,5.54Z"/><path class="cls-20" d="M163.2,39.29c-1.84,1.57-4.39,1.6-5.7.07s-.86-4,1-5.62l.14-.11,4.71,5.53A1.59,1.59,0,0,1,163.2,39.29Z"/><path class="cls-20" d="M163.2,39.29c-1.84,1.57-4.39,1.6-5.7.07s-.86-4,1-5.62l.14-.11,4.71,5.53A1.59,1.59,0,0,1,163.2,39.29Z"/><path class="cls-20" d="M167.75,44.63c-1.84,1.56-4.39,1.59-5.69.06s-.87-4,1-5.61l.15-.11,4.71,5.53Z"/><path class="cls-20" d="M167.75,44.63c-1.84,1.56-4.39,1.59-5.69.06s-.87-4,1-5.61l.15-.11,4.71,5.53Z"/><path class="cls-20" d="M172.3,50c-1.84,1.57-4.39,1.6-5.69.07s-.87-4,1-5.61l.15-.11,4.71,5.53Z"/><path class="cls-20" d="M172.3,50c-1.84,1.57-4.39,1.6-5.69.07s-.87-4,1-5.61l.15-.11,4.71,5.53Z"/><path class="cls-20" d="M176.86,55.3c-1.84,1.57-4.39,1.6-5.7.07s-.86-4,1-5.61l.14-.11L177,55.18Z"/><path class="cls-20" d="M176.86,55.3c-1.84,1.57-4.39,1.6-5.7.07s-.86-4,1-5.61l.14-.11L177,55.18Z"/><path class="cls-20" d="M181.41,60.64c-1.84,1.57-4.39,1.6-5.7.07s-.86-4.05,1-5.61l.14-.12,4.71,5.53A.8.8,0,0,1,181.41,60.64Z"/><path class="cls-20" d="M186,66c-1.84,1.57-4.39,1.6-5.69.07s-.87-4,1-5.62l.15-.11,4.71,5.53Z"/><path class="cls-20" d="M190.52,71.31c-1.85,1.57-4.4,1.6-5.7.07s-.87-4,1-5.61l.14-.11,4.71,5.53Z"/><path class="cls-20" d="M190.52,71.31c-1.85,1.57-4.4,1.6-5.7.07s-.87-4,1-5.61l.14-.11,4.71,5.53Z"/><path class="cls-20" d="M195.07,76.65c-1.84,1.57-4.39,1.6-5.7.07s-.86-4,1-5.61l.14-.11,4.71,5.53Z"/><path class="cls-20" d="M199.62,82c-1.84,1.57-4.39,1.6-5.69.07s-.87-4,1-5.61l.15-.12,4.71,5.54Z"/><polygon class="cls-19" points="142.08 0 88.26 0.21 6.86 96.41 20.74 96.42 93 10.26 136.07 10.26 208.89 96.13 221.03 96.41 142.08 0"/><polygon class="cls-33" points="210.31 93.52 213.53 93.79 139.32 4.47 89.42 4.18 89.37 4.16 14.92 94 17.27 94.11 90.49 6.02 138.28 6.02 210.31 93.52"/><path class="cls-34" d="M212,175.3V139a3.69,3.69,0,0,0-3.68-3.69h0a3.7,3.7,0,0,0-3.69,3.69l-.07,36.26Z"/><path class="cls-34" d="M225.82,175.3V139a3.7,3.7,0,0,0-3.68-3.69h0a3.7,3.7,0,0,0-3.69,3.69v36.32Z"/><path class="cls-34" d="M238.83,175.3V139a3.7,3.7,0,0,0-3.69-3.69h0a3.69,3.69,0,0,0-3.68,3.69v36.32Z"/><path class="cls-34" d="M251.84,175.3V139a3.7,3.7,0,0,0-3.69-3.69h0a3.7,3.7,0,0,0-3.69,3.69l.06,36.32Z"/><path class="cls-34" d="M264.84,175.3V139a3.7,3.7,0,0,0-3.68-3.69h0a3.7,3.7,0,0,0-3.69,3.69l-.07,36.26Z"/><path class="cls-34" d="M277.85,175.3V139a3.7,3.7,0,0,0-3.69-3.69h0a3.7,3.7,0,0,0-3.69,3.69l-.14,36.26Z"/><path class="cls-34" d="M290.86,175.3V139a3.7,3.7,0,0,0-3.69-3.69h0a3.7,3.7,0,0,0-3.69,3.69l-.08,36.26Z"/><rect class="cls-34" x="205.34" y="145.32" width="84.35" height="2.86"/><rect class="cls-34" x="205.34" y="164.83" width="85.31" height="2.85"/></g></g></svg>